<svg xmlns="http://www.w3.org/2000/svg" style="display: none;"><symbol id="user" viewBox="0 0 512 512"><title>user</title><path d="m437.019531 74.980469c-48.351562-48.351563-112.640625-74.980469-181.019531-74.980469s-132.667969 26.628906-181.019531 74.980469c-48.351563 48.351562-74.980469 112.640625-74.980469 181.019531s26.628906 132.667969 74.980469 181.019531c48.351562 48.351563 112.640625 74.980469 181.019531 74.980469s132.667969-26.628906 181.019531-74.980469c48.351563-48.351562 74.980469-112.640625 74.980469-181.019531s-26.628906-132.667969-74.980469-181.019531zm-325.914062 354.316406c8.453125-72.734375 70.988281-128.890625 144.894531-128.890625 38.960938 0 75.597656 15.179688 103.15625 42.734375 23.28125 23.285156 37.964844 53.6875 41.742188 86.152344-39.257813 32.878906-89.804688 52.707031-144.898438 52.707031s-105.636719-19.824219-144.894531-52.703125zm144.894531-159.789063c-42.871094 0-77.753906-34.882812-77.753906-77.753906 0-42.875 34.882812-77.753906 77.753906-77.753906s77.753906 34.878906 77.753906 77.753906c0 42.871094-34.882812 77.753906-77.753906 77.753906zm170.71875 134.425782c-7.644531-30.820313-23.585938-59.238282-46.351562-82.003906-18.4375-18.4375-40.25-32.269532-64.039063-40.9375 28.597656-19.394532 47.425781-52.160157 47.425781-89.238282 0-59.414062-48.339844-107.753906-107.753906-107.753906s-107.753906 48.339844-107.753906 107.753906c0 37.097656 18.84375 69.875 47.464844 89.265625-21.886719 7.976563-42.140626 20.308594-59.566407 36.542969-25.234375 23.5-42.757812 53.464844-50.882812 86.347656-34.410157-39.667968-55.261719-91.398437-55.261719-147.910156 0-124.617188 101.382812-226 226-226s226 101.382812 226 226c0 56.523438-20.859375 108.265625-55.28125 147.933594zm0 0"/></symbol><symbol id="done" viewBox="0 0 512 512"><title>done</title><g> <g> <path d="M437.019,74.98C388.667,26.629,324.38,0,256,0C187.619,0,123.331,26.629,74.98,74.98C26.628,123.332,0,187.62,0,256 s26.628,132.667,74.98,181.019C123.332,485.371,187.619,512,256,512c68.38,0,132.667-26.629,181.019-74.981 C485.371,388.667,512,324.38,512,256S485.371,123.333,437.019,74.98z M256,482C131.383,482,30,380.617,30,256S131.383,30,256,30 s226,101.383,226,226S380.617,482,256,482z"/> </g> </g><g> <g> <path d="M378.305,173.859c-5.857-5.856-15.355-5.856-21.212,0.001L224.634,306.319l-69.727-69.727 c-5.857-5.857-15.355-5.857-21.213,0c-5.858,5.857-5.858,15.355,0,21.213l80.333,80.333c2.929,2.929,6.768,4.393,10.606,4.393 c3.838,0,7.678-1.465,10.606-4.393l143.066-143.066C384.163,189.215,384.163,179.717,378.305,173.859z"/> </g> </g></symbol><symbol id="open" viewBox="0 0 512 512"><title>open</title><path d="M256,0C115.03,0,0,115.05,0,256c0,140.97,115.05,256,256,256c140.97,0,256-115.05,256-256C512,115.03,396.95,0,256,0z M256,482C131.383,482,30,380.617,30,256S131.383,30,256,30s226,101.383,226,226S380.617,482,256,482z"/></symbol><symbol id="menu" viewBox="0 -53 384 384"><title>menu</title><path d="m368 154.667969h-352c-8.832031 0-16-7.167969-16-16s7.167969-16 16-16h352c8.832031 0 16 7.167969 16 16s-7.167969 16-16 16zm0 0"/><path d="m368 32h-352c-8.832031 0-16-7.167969-16-16s7.167969-16 16-16h352c8.832031 0 16 7.167969 16 16s-7.167969 16-16 16zm0 0"/><path d="m368 277.332031h-352c-8.832031 0-16-7.167969-16-16s7.167969-16 16-16h352c8.832031 0 16 7.167969 16 16s-7.167969 16-16 16zm0 0"/></symbol><symbol id="close" viewBox="0 0 512 512"><title>close</title><path d="m25 512a25 25 0 0 1 -17.68-42.68l462-462a25 25 0 0 1 35.36 35.36l-462 462a24.93 24.93 0 0 1 -17.68 7.32z"/><path d="m487 512a24.93 24.93 0 0 1 -17.68-7.32l-462-462a25 25 0 0 1 35.36-35.36l462 462a25 25 0 0 1 -17.68 42.68z"/></symbol><symbol id="edit" viewBox="0 0 64 64"><title>edit</title><g><path d="m11.105 43.597c-.512 0-1.023-.195-1.414-.586-.781-.781-.781-2.047 0-2.828l31.254-31.254c.78-.781 2.047-.781 2.828 0s.781 2.047 0 2.828l-31.254 31.254c-.39.39-.902.586-1.414.586z"/></g><g><path d="m8.017 58c-.139 0-.28-.015-.421-.045-1.08-.232-1.768-1.295-1.536-2.375l3.09-14.403c.232-1.08 1.3-1.766 2.375-1.536 1.08.232 1.768 1.295 1.536 2.375l-3.09 14.403c-.201.939-1.031 1.581-1.954 1.581z"/></g><g><path d="m22.418 54.91c-.512 0-1.023-.195-1.414-.586-.781-.781-.781-2.047 0-2.828l31.254-31.253c.78-.781 2.047-.781 2.828 0s.781 2.047 0 2.828l-31.253 31.253c-.391.391-.903.586-1.415.586z"/></g><g><path d="m8.013 58c-.923 0-1.752-.642-1.954-1.581-.231-1.08.456-2.143 1.536-2.375l14.403-3.09c1.081-.229 2.144.457 2.375 1.536.231 1.08-.456 2.143-1.536 2.375l-14.403 3.09c-.141.031-.282.045-.421.045z"/></g><g><path d="m48.015 29.313c-.512 0-1.024-.195-1.414-.586l-11.313-11.313c-.781-.781-.781-2.047 0-2.828.78-.781 2.048-.781 2.828 0l11.313 11.313c.781.781.781 2.047 0 2.828-.39.391-.902.586-1.414.586z"/></g><g><path d="m53.672 23.657c-.512 0-1.024-.195-1.415-.586-.781-.781-.781-2.047 0-2.829 1.113-1.113 1.726-2.62 1.726-4.242s-.613-3.129-1.726-4.242c-1.114-1.114-2.621-1.727-4.243-1.727s-3.129.613-4.242 1.727c-.78.781-2.046.782-2.829 0-.781-.781-.781-2.047 0-2.829 1.868-1.869 4.379-2.898 7.071-2.898 2.691 0 5.203 1.029 7.071 2.898 1.869 1.868 2.898 4.379 2.898 7.071s-1.029 5.203-2.898 7.071c-.389.39-.901.586-1.413.586z"/></g></symbol><symbol id="trash" viewBox="0 0 512 512"><title>trash</title><path d="m424 64h-88v-16c0-26.467-21.533-48-48-48h-64c-26.467 0-48 21.533-48 48v16h-88c-22.056 0-40 17.944-40 40v56c0 8.836 7.164 16 16 16h8.744l13.823 290.283c1.221 25.636 22.281 45.717 47.945 45.717h242.976c25.665 0 46.725-20.081 47.945-45.717l13.823-290.283h8.744c8.836 0 16-7.164 16-16v-56c0-22.056-17.944-40-40-40zm-216-16c0-8.822 7.178-16 16-16h64c8.822 0 16 7.178 16 16v16h-96zm-128 56c0-4.411 3.589-8 8-8h336c4.411 0 8 3.589 8 8v40c-4.931 0-331.567 0-352 0zm313.469 360.761c-.407 8.545-7.427 15.239-15.981 15.239h-242.976c-8.555 0-15.575-6.694-15.981-15.239l-13.751-288.761h302.44z"/><path d="m256 448c8.836 0 16-7.164 16-16v-208c0-8.836-7.164-16-16-16s-16 7.164-16 16v208c0 8.836 7.163 16 16 16z"/><path d="m336 448c8.836 0 16-7.164 16-16v-208c0-8.836-7.164-16-16-16s-16 7.164-16 16v208c0 8.836 7.163 16 16 16z"/><path d="m176 448c8.836 0 16-7.164 16-16v-208c0-8.836-7.164-16-16-16s-16 7.164-16 16v208c0 8.836 7.163 16 16 16z"/></symbol><symbol id="plus" viewBox="0 0 426.66667 426.66667"><title>plus</title><path d="m405.332031 192h-170.664062v-170.667969c0-11.773437-9.558594-21.332031-21.335938-21.332031-11.773437 0-21.332031 9.558594-21.332031 21.332031v170.667969h-170.667969c-11.773437 0-21.332031 9.558594-21.332031 21.332031 0 11.777344 9.558594 21.335938 21.332031 21.335938h170.667969v170.664062c0 11.777344 9.558594 21.335938 21.332031 21.335938 11.777344 0 21.335938-9.558594 21.335938-21.335938v-170.664062h170.664062c11.777344 0 21.335938-9.558594 21.335938-21.335938 0-11.773437-9.558594-21.332031-21.335938-21.332031zm0 0"/></symbol><symbol id="down-arrow" viewBox="0 0 128 128"><title>down-arrow</title><path id="Down_Arrow_3_" d="m64 88c-1.023 0-2.047-.391-2.828-1.172l-40-40c-1.563-1.563-1.563-4.094 0-5.656s4.094-1.563 5.656 0l37.172 37.172 37.172-37.172c1.563-1.563 4.094-1.563 5.656 0s1.563 4.094 0 5.656l-40 40c-.781.781-1.805 1.172-2.828 1.172z"/></symbol><symbol id="no-connection" viewBox="0 0 512 512"><title>no-connection</title><path d="m47.133 190.667h16.067c19.872-.733 19.874-29.266 0-30h-16.067c-19.871.733-19.874 29.266 0 30z"/><path d="m464.867 321.334h-16.067c-19.871.733-19.874 29.266 0 30h16.067c19.871-.734 19.874-29.267 0-30z"/><path d="m175.667 78.2c8.284 0 15-6.716 15-15v-16.067c-.733-19.872-29.266-19.874-30 0v16.067c0 8.284 6.715 15 15 15z"/><path d="m336.333 433.8c-8.284 0-15 6.716-15 15v16.067c.733 19.871 29.266 19.874 30 0v-16.067c0-8.284-6.715-15-15-15z"/><path d="m85.514 106.731c14.552 13.555 34.757-6.592 21.245-21.182 0 0-11.327-11.361-11.327-11.361-14.551-13.554-34.758 6.589-21.245 21.182 0 .001 11.327 11.361 11.327 11.361z"/><path d="m426.486 405.269c-14.551-13.554-34.758 6.589-21.245 21.182 0 0 11.327 11.361 11.327 11.361 14.552 13.555 34.757-6.592 21.245-21.182 0-.001-11.327-11.361-11.327-11.361z"/><path d="m507.607 49.849-45.456-45.456c-5.858-5.858-15.355-5.858-21.213 0l-60.811 60.811c-37.265-27.007-89.834-23.756-123.42 9.791 0 0-34.034 34.055-34.039 34.059-5.867 5.858-5.865 15.366-.009 21.223l159.059 159.052c5.855 5.854 15.346 5.857 21.204.009l34.064-34.085c33.708-33.667 36.927-86.097 9.799-123.369l60.821-60.821c5.858-5.859 5.858-15.356.001-21.214zm-91.841 184.197-23.438 23.466-137.845-137.84 23.444-23.472c25.494-25.463 66.977-25.464 92.441-.03l45.418 45.473c25.506 25.474 25.633 66.783-.02 92.403zm10.629-124.233-24.193-24.223 49.337-49.375 24.243 24.229z"/><path d="m288.565 380.948s34.836-34.814 34.838-34.816c18.305-18.31 18.499-48.149-.001-66.656-18.34-18.341-48.263-18.42-66.698.017l-34.771 34.825-24.241-24.24s34.853-34.832 34.855-34.833c18.343-18.348 18.464-48.186-.001-66.656-18.363-18.364-48.295-18.388-66.678-.004l-34.846 34.826c-5.735-6.467-15.816-6.914-21.944-.748 0 0-34.064 34.085-34.064 34.085-33.705 33.664-36.929 86.095-9.799 123.369l-60.822 60.821c-5.858 5.858-5.858 15.355 0 21.213l45.456 45.456c5.858 5.858 15.355 5.858 21.213 0l60.81-60.81c37.28 27.019 89.851 23.739 123.421-9.791 0 0 34.034-34.056 34.038-34.061 6.159-5.892 5.686-16.506-.766-21.997zm-101.488-171.147c16.675-15.436 39.694 7.559 24.26 24.227 0 0-34.868 34.846-34.868 34.846l-24.25-24.236zm-126.615 265.985-24.244-24.23 49.387-49.369 24.193 24.224zm173.611-59.986c-25.495 25.463-66.977 25.463-92.441.03l-45.418-45.475c-25.509-25.477-25.629-66.785.021-92.402l23.438-23.466 137.845 137.839zm9.072-80.268 34.789-34.844c6.675-6.675 17.57-6.684 24.253-.001 6.692 6.693 6.674 17.557.002 24.232l-34.854 34.833z"/></symbol><symbol id="right-arrow" viewBox="0 0 512 512"><title>right-arrow</title><path d="M506.134,241.843c-0.006-0.006-0.011-0.013-0.018-0.019l-104.504-104c-7.829-7.791-20.492-7.762-28.285,0.068 c-7.792,7.829-7.762,20.492,0.067,28.284L443.558,236H20c-11.046,0-20,8.954-20,20c0,11.046,8.954,20,20,20h423.557 l-70.162,69.824c-7.829,7.792-7.859,20.455-0.067,28.284c7.793,7.831,20.457,7.858,28.285,0.068l104.504-104 c0.006-0.006,0.011-0.013,0.018-0.019C513.968,262.339,513.943,249.635,506.134,241.843z"/></symbol><symbol id="search" viewBox="0 0 461.516 461.516"><title>search</title><path d="m185.746 371.332c41.251.001 81.322-13.762 113.866-39.11l122.778 122.778c9.172 8.858 23.787 8.604 32.645-.568 8.641-8.947 8.641-23.131 0-32.077l-122.778-122.778c62.899-80.968 48.252-197.595-32.716-260.494s-197.594-48.252-260.493 32.716-48.252 197.595 32.716 260.494c32.597 25.323 72.704 39.06 113.982 39.039zm-98.651-284.273c54.484-54.485 142.82-54.486 197.305-.002s54.486 142.82.002 197.305-142.82 54.486-197.305.002c-.001-.001-.001-.001-.002-.002-54.484-54.087-54.805-142.101-.718-196.585.239-.24.478-.479.718-.718z"/></symbol><symbol id="refuse" viewBox="0 0 512 512"><title>refuse</title><path d="m256 512c-141.160156 0-256-114.839844-256-256s114.839844-256 256-256 256 114.839844 256 256-114.839844 256-256 256zm0-475.429688c-120.992188 0-219.429688 98.4375-219.429688 219.429688s98.4375 219.429688 219.429688 219.429688 219.429688-98.4375 219.429688-219.429688-98.4375-219.429688-219.429688-219.429688zm0 0"/><path d="m347.429688 365.714844c-4.679688 0-9.359376-1.785156-12.929688-5.359375l-182.855469-182.855469c-7.144531-7.144531-7.144531-18.714844 0-25.855469 7.140625-7.140625 18.714844-7.144531 25.855469 0l182.855469 182.855469c7.144531 7.144531 7.144531 18.714844 0 25.855469-3.570313 3.574219-8.246094 5.359375-12.925781 5.359375zm0 0"/><path d="m164.570312 365.714844c-4.679687 0-9.355468-1.785156-12.925781-5.359375-7.144531-7.140625-7.144531-18.714844 0-25.855469l182.855469-182.855469c7.144531-7.144531 18.714844-7.144531 25.855469 0 7.140625 7.140625 7.144531 18.714844 0 25.855469l-182.855469 182.855469c-3.570312 3.574219-8.25 5.359375-12.929688 5.359375zm0 0"/></symbol><symbol id="file" viewBox="0 0 512 512"><title>file</title><g> <g> <path d="M436,60h-15V45c0-24.813-20.187-45-45-45H76C51.187,0,31,20.187,31,45v362c0,24.813,20.187,45,45,45h15v15 c0,24.813,20.187,45,45,45h300c24.813,0,45-20.187,45-45V105C481,80.187,460.813,60,436,60z M104.18,115.607 C95.68,124.106,91,135.406,91,147.426V422H76c-8.271,0-15-6.729-15-15V45c0-8.271,6.729-15,15-15h300c8.271,0,15,6.729,15,15v15 H178.426c-12.02,0-23.32,4.681-31.819,13.18L104.18,115.607z M181,90v60h-60v-2.574c0-4.006,1.56-7.773,4.393-10.606 l42.427-42.427c2.833-2.833,6.6-4.393,10.606-4.393H181z M451,467c0,8.271-6.729,15-15,15H136c-8.271,0-15-6.729-15-15V180h75 c8.284,0,15-6.716,15-15V90h225c8.271,0,15,6.729,15,15V467z"/> </g> </g><g> <g> <path d="M406,212H166c-8.284,0-15,6.716-15,15s6.716,15,15,15h240c8.284,0,15-6.716,15-15S414.284,212,406,212z"/> </g> </g><g> <g> <path d="M406,272H166c-8.284,0-15,6.716-15,15s6.716,15,15,15h240c8.284,0,15-6.716,15-15S414.284,272,406,272z"/> </g> </g><g> <g> <path d="M406,332H166c-8.284,0-15,6.716-15,15s6.716,15,15,15h240c8.284,0,15-6.716,15-15S414.284,332,406,332z"/> </g> </g><g> <g> <path d="M406,392H166c-8.284,0-15,6.716-15,15s6.716,15,15,15h240c8.284,0,15-6.716,15-15S414.284,392,406,392z"/> </g> </g></symbol><symbol id="like" viewBox="0 0 512 512"><title>like</title><path d="m376 43.836c-42.115 0-78.797 18.705-106.079 54.091-5.533 7.176-10.142 14.352-13.921 21.001-3.779-6.65-8.388-13.825-13.921-21.001-27.282-35.386-63.964-54.091-106.079-54.091-78.28 0-136 60.545-136 136.121 0 39.918 16.799 77.026 52.868 116.779 32.086 35.364 78.38 72.015 131.985 114.454 55.952 44.298 60.387 48.32 71.146 56.973 10.42-8.381 15.33-12.782 71.146-56.973 104.312-82.58 184.855-144.209 184.855-231.232 0-75.472-57.615-136.122-136-136.122zm-67.475 343.833c-16.884 13.367-34.258 27.122-52.525 41.866-18.268-14.744-35.642-28.499-52.525-41.866-104.463-82.702-173.475-137.339-173.475-207.711 0-60.499 45.57-106.121 106-106.121 32.633 0 60.141 14.025 81.759 41.685 16.875 21.591 23.765 43.771 23.877 44.137l.002.007c14.852.033 13.853.031 28.705.064l.02-.067c.067-.222 6.947-22.477 23.878-44.14 21.618-27.66 49.126-41.685 81.759-41.685 60.43 0 106 45.622 106 106.121 0 70.371-69.012 125.008-173.475 207.71z"/></symbol><symbol id="in-progress" viewBox="0 0 512 512"><title>in-progress</title><path d="m256 512c-141.385 0-256-114.615-256-256s114.615-256 256-256 256 114.615 256 256-114.615 256-256 256zm0-30.118c124.751 0 225.882-101.131 225.882-225.882s-101.131-225.882-225.882-225.882-225.882 101.131-225.882 225.882 101.131 225.882 225.882 225.882zm-15.059-406.588c0-8.317 6.742-15.059 15.059-15.059s15.059 6.742 15.059 15.059v45.176c0 8.317-6.742 15.059-15.059 15.059s-15.059-6.742-15.059-15.059zm92.371 16.681c4.159-7.203 13.368-9.67 20.571-5.512s9.671 13.368 5.512 20.571l-22.588 39.124c-4.159 7.202-13.368 9.67-20.571 5.512-7.203-4.159-9.671-13.369-5.512-20.571zm71.654 60.631c7.203-4.159 16.412-1.691 20.571 5.512s1.691 16.412-5.512 20.571l-39.124 22.588c-7.202 4.159-16.412 1.691-20.571-5.512-4.158-7.203-1.69-16.412 5.512-20.571zm31.74 88.335c8.317 0 15.059 6.742 15.059 15.059s-6.742 15.059-15.059 15.059h-45.176c-8.317 0-15.059-6.742-15.059-15.059s6.742-15.059 15.059-15.059zm-16.681 92.371c7.203 4.159 9.671 13.368 5.512 20.571s-13.368 9.671-20.571 5.512l-39.124-22.588c-7.202-4.159-9.67-13.368-5.512-20.571 4.159-7.203 13.369-9.671 20.571-5.512zm-60.631 71.654c4.159 7.203 1.691 16.412-5.512 20.571s-16.412 1.691-20.571-5.512l-22.588-39.124c-4.159-7.202-1.691-16.412 5.512-20.571 7.203-4.158 16.412-1.69 20.571 5.512zm-88.335 31.74c0 8.317-6.742 15.059-15.059 15.059s-15.059-6.742-15.059-15.059v-45.176c0-8.317 6.742-15.059 15.059-15.059s15.059 6.742 15.059 15.059z"/></symbol><symbol id="exclamation" viewBox="0 0 512 512"><title>exclamation</title><g> <g> <path d="M256,0C114.497,0,0,114.507,0,256c0,141.503,114.507,256,256,256c141.503,0,256-114.507,256-256 C512,114.497,397.493,0,256,0z M256,472c-119.393,0-216-96.615-216-216c0-119.393,96.615-216,216-216 c119.393,0,216,96.615,216,216C472,375.393,375.385,472,256,472z"/> </g> </g><g> <g> <path d="M256,128.877c-11.046,0-20,8.954-20,20V277.67c0,11.046,8.954,20,20,20s20-8.954,20-20V148.877 C276,137.831,267.046,128.877,256,128.877z"/> </g> </g><g> <g> <circle cx="256" cy="349.16" r="27"/> </g> </g></symbol><symbol id="enter" viewBox="0 -10 490.66667 490"><title>enter</title><path d="m325.332031 251h-309.332031c-8.832031 0-16-7.167969-16-16s7.167969-16 16-16h309.332031c8.832031 0 16 7.167969 16 16s-7.167969 16-16 16zm0 0"/><path d="m240 336.332031c-4.097656 0-8.191406-1.554687-11.308594-4.691406-6.25-6.25-6.25-16.382813 0-22.636719l74.027344-74.023437-74.027344-74.027344c-6.25-6.25-6.25-16.386719 0-22.636719 6.253906-6.25 16.386719-6.25 22.636719 0l85.332031 85.335938c6.25 6.25 6.25 16.382812 0 22.632812l-85.332031 85.332032c-3.136719 3.160156-7.230469 4.714843-11.328125 4.714843zm0 0"/><path d="m256 469.667969c-97.089844 0-182.804688-58.410157-218.410156-148.824219-3.242188-8.191406.808594-17.492188 9.023437-20.734375 8.191407-3.199219 17.515625.789063 20.757813 9.046875 30.742187 78.058594 104.789062 128.511719 188.628906 128.511719 111.742188 0 202.667969-90.925781 202.667969-202.667969s-90.925781-202.667969-202.667969-202.667969c-83.839844 0-157.886719 50.453125-188.628906 128.511719-3.265625 8.257812-12.566406 12.246094-20.757813 9.046875-8.214843-3.242187-12.265625-12.542969-9.023437-20.734375 35.605468-90.414062 121.320312-148.824219 218.410156-148.824219 129.386719 0 234.667969 105.28125 234.667969 234.667969s-105.28125 234.667969-234.667969 234.667969zm0 0"/></symbol><symbol id="to-do-list" viewBox="0 0 512 512"><title>to-do-list</title><path d="m434.929 46.131c-10.38-10.402-24.184-16.131-38.871-16.131h-24.808v-5c0-13.785-11.215-25-25-25h-180c-13.785 0-25 11.215-25 25v5h-24.897c-30.261 0-54.908 24.646-54.942 54.939l-.411 372c-.016 14.702 5.691 28.528 16.07 38.93 10.38 10.402 24.185 16.131 38.872 16.131h279.704c30.262 0 54.909-24.646 54.942-54.939l.412-372c.017-14.703-5.691-28.529-16.071-38.93zm-263.679-16.131h170v30h-170zm249.37 427.027c-.016 13.771-11.219 24.973-24.974 24.973h-279.704c-6.676 0-12.951-2.604-17.669-7.332-4.718-4.729-7.312-11.013-7.305-17.695l.411-372c.015-13.771 11.218-24.973 24.974-24.973h24.897v5c0 13.785 11.215 25 25 25h180c13.785 0 25-11.215 25-25v-5h24.808c6.676 0 12.951 2.604 17.669 7.332s7.313 11.013 7.305 17.695z"/><path d="m261.099 200h106.571c8.284 0 15-6.716 15-15s-6.716-15-15-15h-106.571c-8.284 0-15 6.716-15 15s6.716 15 15 15z"/><path d="m261.099 300h106.571c8.284 0 15-6.716 15-15s-6.716-15-15-15h-106.571c-8.284 0-15 6.716-15 15s6.716 15 15 15z"/><path d="m368.099 370h-107c-8.284 0-15 6.716-15 15s6.716 15 15 15h107c8.284 0 15-6.716 15-15s-6.715-15-15-15z"/><path d="m197.256 144.157-34.592 34.592-8.156-8.157c-5.858-5.858-15.355-5.858-21.213 0-5.858 5.857-5.858 15.355 0 21.213l18.763 18.764c2.813 2.813 6.628 4.394 10.607 4.394 3.978 0 7.793-1.58 10.606-4.394l45.199-45.198c5.858-5.857 5.858-15.355 0-21.213-5.858-5.859-15.355-5.859-21.214-.001z"/><path d="m197.256 251.794-34.592 34.592-8.156-8.156c-5.858-5.858-15.355-5.858-21.213 0-5.858 5.857-5.858 15.354 0 21.213l18.763 18.764c2.813 2.813 6.628 4.394 10.607 4.394 3.978 0 7.794-1.58 10.606-4.394l45.199-45.199c5.858-5.857 5.858-15.355 0-21.213s-15.356-5.858-21.214-.001z"/><path d="m197.256 351.794-34.592 34.592-8.156-8.156c-5.858-5.858-15.355-5.858-21.213 0-5.858 5.857-5.858 15.354 0 21.213l18.763 18.764c2.813 2.813 6.628 4.394 10.607 4.394 3.978 0 7.794-1.58 10.606-4.394l45.199-45.199c5.858-5.857 5.858-15.355 0-21.213s-15.356-5.858-21.214-.001z"/></symbol><symbol id="money-bag" viewBox="0 0 505.743 505.743"><title>money-bag</title><path d="m425.246 260.217c-17.602-42.21-40.115-79.35-64.801-107.329 13.337-2.438 29.261-4.145 52.393-4.145v-30c-35.14 0-55.752 3.746-73.623 7.988l37.843-93.222c-66.961-44.841-182.06-44.515-248.439 0l37.843 93.222c-17.871-4.242-38.483-7.988-73.623-7.988v30c23.132 0 39.057 1.707 52.394 4.145-58.869 62.268-139.67 256.557-71.649 325.022 30.309 29.656 81.257 28.548 140.252 27.263 25.119-.699 52.887-.699 78.006 0 48.182 1.136 110.558 3.569 140.251-27.264 47.766-48.898 20.061-150.248-6.847-217.692zm-172.407-230.474c39.966 0 70.719 10.527 86.352 17.291l-35.67 87.871c-22.645 4.984-78.717 4.985-101.363 0l-35.67-87.869c15.649-6.772 46.396-17.293 86.351-17.293zm158.273 426.724c-25.366 27.103-107.285 17.498-158.273 18.147-51.021-.651-132.866 8.955-158.273-18.148-11.213-10.971-16.663-28.774-16.663-54.427-1.016-72.963 47.253-191.171 101.212-241.307 35.297 10.488 112.202 10.475 147.442.001 54.006 50.179 102.254 168.427 101.216 241.307.001 25.652-5.449 43.456-16.661 54.427z"/><path d="m245.754 267.835c19.796-6.332 35.086 5.992 47.485 12.043l14.233-26.408c-13.63-7.054-21.329-13.046-40.527-16.521v-19.206h-30v21.384c-31.431 9.654-45.626 54.788-18.7 76.216 9.268 7.269 22.062 13.42 44.159 21.232 25.404 9.194 11.412 42.439-10.559 41.6-13.908.081-18.235-.593-28.898-7.568l-12.552-8.211-16.422 25.104c14.339 9.525 27.372 18.834 42.973 20.052v21.191h30v-22.645c46.777-13.264 54.403-80.945 5.456-97.808-13.088-4.627-27.558-10.212-35.643-16.552-3.269-2.563-2.778-7.763-2.55-9.295.739-4.962 4.206-11.764 11.545-14.608z"/></symbol><symbol id="team" viewBox="0 0 372.483 372.483"><title>team</title><path d="M372.482,263.045c0-21.796-6.527-42.842-18.877-60.863c-8.883-12.962-20.322-23.726-33.578-31.725 c15.607-14.78,25.372-35.67,25.372-58.811c0-44.684-36.354-81.038-81.037-81.038c-26.496,0-51.316,13.104-66.392,34.615 c-3.831-0.558-7.745-0.859-11.729-0.859s-7.897,0.302-11.728,0.859c-15.077-21.511-39.897-34.615-66.392-34.615 c-44.684,0-81.038,36.354-81.038,81.038c0,23.141,9.765,44.031,25.373,58.811c-13.257,7.998-24.696,18.763-33.578,31.724 C6.528,220.203,0,241.249,0,263.045v45.075h78.121v33.755h216.242V308.12h78.12v-45.075H372.482z M264.362,50.609 c33.656,0,61.037,27.381,61.037,61.038s-27.381,61.038-61.037,61.038c-0.603,0-1.206-0.009-1.81-0.027 c0.046-0.128,0.084-0.259,0.129-0.387c1.042-2.954,1.911-5.988,2.608-9.087c0.049-0.22,0.105-0.438,0.152-0.659 c0.181-0.836,0.34-1.68,0.495-2.526c0.073-0.4,0.148-0.799,0.215-1.2c0.126-0.755,0.24-1.513,0.345-2.274 c0.073-0.529,0.139-1.058,0.202-1.588c0.079-0.672,0.156-1.345,0.219-2.022c0.064-0.691,0.112-1.383,0.158-2.076 c0.036-0.546,0.081-1.09,0.106-1.639c0.055-1.177,0.086-2.356,0.09-3.536c0-0.087,0.007-0.172,0.007-0.26 c0-0.047-0.004-0.094-0.004-0.141c-0.002-1.205-0.037-2.403-0.091-3.597c-0.016-0.347-0.037-0.693-0.057-1.039 c-0.059-1.015-0.136-2.025-0.231-3.03c-0.022-0.228-0.04-0.456-0.063-0.683c-3.022-29.209-21.475-54.21-48.095-65.774 C230.208,58.253,246.8,50.609,264.362,50.609z M165.122,88.131c0.195-0.071,0.392-0.138,0.587-0.208 c0.607-0.217,1.219-0.423,1.834-0.622c0.466-0.149,0.935-0.293,1.407-0.431c0.343-0.101,0.687-0.198,1.032-0.294 c0.616-0.169,1.235-0.334,1.86-0.485c4.62-1.122,9.438-1.731,14.397-1.731c4.963,0.004,9.783,0.614,14.404,1.736 c0.621,0.15,1.236,0.314,1.849,0.482c0.35,0.097,0.7,0.195,1.047,0.298c0.466,0.137,0.93,0.279,1.391,0.426 c0.623,0.201,1.242,0.409,1.856,0.629c0.189,0.067,0.378,0.131,0.566,0.2c20.413,7.549,35.718,25.716,39.182,47.763 c0.027,0.176,0.053,0.353,0.079,0.53c0.111,0.747,0.204,1.5,0.287,2.255c0.03,0.278,0.062,0.555,0.089,0.834 c0.066,0.689,0.115,1.383,0.159,2.079c0.018,0.298,0.043,0.595,0.057,0.894c0.042,0.889,0.065,1.783,0.068,2.682 c0,0.078,0.005,0.154,0.005,0.232c0,0.036-0.002,0.073-0.002,0.109c-0.002,0.87-0.028,1.734-0.066,2.595 c-0.012,0.271-0.024,0.542-0.04,0.812c-0.047,0.832-0.109,1.66-0.189,2.482c-0.031,0.318-0.073,0.635-0.109,0.952 c-0.061,0.532-0.129,1.063-0.203,1.591c-0.058,0.411-0.116,0.823-0.182,1.232c-0.101,0.623-0.213,1.242-0.333,1.859 c-0.107,0.549-0.224,1.096-0.346,1.642c-0.073,0.329-0.149,0.658-0.228,0.985c-0.195,0.811-0.409,1.617-0.637,2.42 c-0.091,0.319-0.176,0.64-0.272,0.956c-0.139,0.46-0.289,0.916-0.438,1.372c-0.12,0.365-0.243,0.728-0.37,1.09 c-0.144,0.411-0.286,0.823-0.438,1.231c-0.259,0.693-0.531,1.38-0.814,2.061c-0.126,0.304-0.26,0.605-0.391,0.908 c-0.247,0.567-0.501,1.131-0.765,1.689c-0.031,0.066-0.062,0.132-0.093,0.198c-0.095,0.198-0.189,0.397-0.286,0.595 c-0.296,0.604-0.604,1.201-0.92,1.793c-0.123,0.23-0.242,0.463-0.368,0.692c-0.008,0.015-0.016,0.029-0.024,0.043 c-0.346,0.63-0.707,1.25-1.074,1.866c-0.146,0.244-0.29,0.489-0.439,0.73c-0.4,0.649-0.811,1.291-1.234,1.923 c-0.263,0.393-0.538,0.778-0.81,1.165c-0.231,0.328-0.461,0.657-0.698,0.98c-0.307,0.418-0.62,0.831-0.938,1.242 c-0.216,0.279-0.434,0.556-0.654,0.832c-0.336,0.42-0.675,0.838-1.021,1.249c-0.215,0.255-0.436,0.505-0.655,0.756 c-0.36,0.413-0.719,0.827-1.089,1.23c-0.22,0.239-0.448,0.469-0.672,0.705c-0.602,0.635-1.218,1.256-1.846,1.865 c-0.373,0.361-0.744,0.723-1.126,1.074c-0.264,0.243-0.535,0.479-0.804,0.718c-0.438,0.389-0.879,0.774-1.328,1.15 c-0.228,0.191-0.458,0.38-0.689,0.568c-0.543,0.442-1.093,0.875-1.652,1.299c-0.152,0.115-0.302,0.232-0.455,0.346 c-10.16,7.553-22.736,12.03-36.34,12.03c-13.605,0-26.183-4.478-36.343-12.033c-0.15-0.112-0.297-0.227-0.446-0.34 c-0.561-0.425-1.114-0.861-1.659-1.305c-0.229-0.187-0.458-0.374-0.684-0.564c-0.451-0.378-0.893-0.765-1.333-1.155 c-0.267-0.238-0.537-0.472-0.8-0.714c-0.383-0.352-0.755-0.715-1.129-1.076c-0.631-0.611-1.248-1.234-1.852-1.871 c-0.221-0.233-0.447-0.46-0.664-0.696c-0.371-0.404-0.73-0.819-1.09-1.232c-0.219-0.251-0.439-0.5-0.654-0.755 c-0.347-0.411-0.685-0.829-1.021-1.248c-0.22-0.276-0.439-0.553-0.655-0.833c-0.317-0.41-0.63-0.823-0.937-1.241 c-0.237-0.324-0.468-0.654-0.699-0.983c-0.272-0.386-0.546-0.77-0.808-1.162c-0.425-0.635-0.838-1.279-1.239-1.93 c-0.147-0.239-0.289-0.48-0.433-0.721c-0.373-0.625-0.738-1.253-1.089-1.892c-0.129-0.235-0.251-0.474-0.378-0.71 c-0.316-0.594-0.625-1.193-0.922-1.798c-0.106-0.215-0.209-0.432-0.312-0.648c-0.016-0.033-0.031-0.066-0.046-0.099 c-0.277-0.584-0.542-1.174-0.801-1.769c-0.123-0.283-0.248-0.565-0.366-0.849c-0.29-0.696-0.567-1.398-0.832-2.106 c-0.143-0.382-0.275-0.768-0.41-1.153c-0.139-0.395-0.273-0.793-0.404-1.192c-0.141-0.432-0.283-0.864-0.415-1.298 c-0.197-0.649-0.383-1.302-0.558-1.959c-0.123-0.461-0.234-0.926-0.347-1.39c-0.088-0.365-0.173-0.73-0.254-1.097 c-0.1-0.45-0.201-0.899-0.291-1.351c-0.139-0.704-0.266-1.412-0.38-2.124c-0.062-0.384-0.116-0.769-0.171-1.153 c-0.081-0.569-0.154-1.141-0.219-1.715c-0.032-0.283-0.069-0.566-0.098-0.849c-0.083-0.843-0.146-1.692-0.194-2.544 c-0.014-0.245-0.025-0.49-0.036-0.735c-0.041-0.911-0.07-1.825-0.07-2.745c0-0.986,0.028-1.965,0.075-2.94 c0.013-0.265,0.035-0.528,0.05-0.792c0.044-0.732,0.097-1.462,0.167-2.188c0.024-0.253,0.053-0.505,0.08-0.757 c0.086-0.786,0.183-1.568,0.299-2.345c0.022-0.151,0.044-0.303,0.068-0.454C129.393,113.864,144.701,95.685,165.122,88.131z M47.083,111.647c0-33.656,27.381-61.038,61.038-61.038c17.563,0,34.154,7.645,45.625,20.529 c-26.629,11.568-45.086,36.581-48.099,65.802c-0.021,0.198-0.036,0.397-0.055,0.596c-0.1,1.041-0.179,2.086-0.239,3.137 c-0.018,0.32-0.038,0.639-0.053,0.96c-0.057,1.251-0.096,2.506-0.096,3.77c0,1.276,0.037,2.549,0.097,3.821 c0.024,0.512,0.066,1.019,0.099,1.528c0.049,0.732,0.099,1.464,0.167,2.194c0.06,0.649,0.134,1.294,0.21,1.939 c0.066,0.562,0.136,1.122,0.214,1.682c0.102,0.735,0.212,1.467,0.333,2.196c0.073,0.433,0.153,0.865,0.232,1.297 c0.15,0.816,0.303,1.63,0.477,2.437c0.058,0.266,0.124,0.53,0.184,0.795c0.679,3.003,1.522,5.943,2.526,8.81 c0.064,0.185,0.12,0.372,0.185,0.556c-0.603,0.018-1.207,0.027-1.809,0.027C74.464,172.684,47.083,145.303,47.083,111.647z M94.888,239.148c-0.22,0.347-0.43,0.7-0.646,1.049c-0.457,0.738-0.91,1.478-1.348,2.225c-0.245,0.417-0.481,0.837-0.719,1.257 c-0.394,0.693-0.783,1.388-1.161,2.089c-0.238,0.441-0.472,0.884-0.704,1.327c-0.364,0.697-0.719,1.398-1.067,2.101 c-0.219,0.442-0.437,0.883-0.649,1.327c-0.354,0.741-0.695,1.488-1.032,2.236c-0.183,0.407-0.371,0.811-0.548,1.22 c-0.39,0.896-0.762,1.799-1.127,2.705c-0.107,0.265-0.221,0.527-0.325,0.792c-0.463,1.177-0.906,2.362-1.326,3.553 c-0.096,0.273-0.182,0.549-0.277,0.822c-0.316,0.918-0.624,1.839-0.915,2.764c-0.133,0.425-0.256,0.852-0.384,1.278 c-0.235,0.784-0.466,1.569-0.683,2.359c-0.129,0.47-0.252,0.941-0.375,1.413c-0.198,0.758-0.388,1.518-0.568,2.281 c-0.115,0.483-0.227,0.966-0.334,1.45c-0.172,0.773-0.333,1.549-0.488,2.326c-0.093,0.467-0.189,0.934-0.276,1.403 c-0.157,0.846-0.298,1.696-0.435,2.547c-0.064,0.4-0.135,0.798-0.195,1.198c-0.186,1.25-0.355,2.503-0.497,3.762 c-0.002,0.015-0.003,0.03-0.004,0.045c-0.129,1.145-0.24,2.292-0.333,3.443H20v-25.075c0-34.258,19.694-65.013,50.548-79.631 c11.24,5.908,24.017,9.271,37.572,9.271c3.92,0,7.852-0.29,11.754-0.864c0.608,0.867,1.226,1.725,1.866,2.567 c0.216,0.283,0.44,0.559,0.66,0.839c0.632,0.808,1.273,1.607,1.935,2.39c0.271,0.321,0.549,0.635,0.825,0.952 c0.62,0.712,1.25,1.415,1.894,2.104c0.338,0.363,0.682,0.72,1.026,1.077c0.589,0.607,1.186,1.205,1.793,1.794 c0.228,0.221,0.443,0.455,0.673,0.674c-0.869,0.525-1.73,1.063-2.583,1.612c-0.139,0.089-0.275,0.183-0.413,0.273 c-0.853,0.554-1.697,1.12-2.533,1.697c-0.289,0.2-0.577,0.402-0.865,0.604c-0.745,0.525-1.482,1.059-2.213,1.602 c-0.231,0.172-0.465,0.34-0.694,0.514c-0.93,0.703-1.849,1.419-2.756,2.151c-0.198,0.16-0.392,0.325-0.59,0.487 c-0.722,0.591-1.437,1.192-2.143,1.802c-0.274,0.236-0.546,0.474-0.818,0.713c-0.707,0.623-1.405,1.255-2.096,1.896 c-0.18,0.167-0.364,0.331-0.543,0.5c-0.848,0.798-1.683,1.611-2.506,2.438c-0.214,0.215-0.423,0.434-0.635,0.65 c-0.63,0.643-1.253,1.293-1.868,1.952c-0.244,0.262-0.488,0.524-0.73,0.789c-0.692,0.756-1.374,1.522-2.045,2.299 c-0.105,0.122-0.214,0.24-0.319,0.363c-0.765,0.893-1.513,1.803-2.251,2.722c-0.206,0.256-0.407,0.516-0.61,0.775 c-0.555,0.705-1.102,1.417-1.64,2.136c-0.208,0.278-0.417,0.554-0.622,0.834c-0.704,0.96-1.399,1.928-2.074,2.913 C96.274,236.998,95.572,238.069,94.888,239.148z M98.121,321.876v-13.755v-11.32c0-1.11,0.021-2.216,0.062-3.319 c0.013-0.363,0.042-0.723,0.06-1.085c0.036-0.736,0.07-1.473,0.124-2.206c0.033-0.445,0.083-0.886,0.123-1.33 c0.058-0.646,0.11-1.293,0.182-1.935c0.053-0.47,0.122-0.937,0.182-1.406c0.078-0.611,0.151-1.223,0.241-1.831 c0.073-0.484,0.161-0.964,0.241-1.446c0.098-0.586,0.189-1.174,0.299-1.757c0.093-0.493,0.201-0.981,0.302-1.472 c0.116-0.566,0.227-1.134,0.354-1.696c0.112-0.496,0.24-0.987,0.36-1.481c0.135-0.55,0.264-1.103,0.409-1.65 c0.132-0.497,0.278-0.989,0.418-1.482c0.152-0.537,0.3-1.075,0.462-1.608c0.151-0.496,0.317-0.988,0.476-1.481 c0.17-0.523,0.335-1.047,0.514-1.566c0.17-0.491,0.353-0.978,0.531-1.465c0.188-0.514,0.372-1.03,0.569-1.54 c0.188-0.485,0.388-0.964,0.583-1.446c0.205-0.503,0.407-1.009,0.621-1.508c0.207-0.481,0.425-0.957,0.64-1.433 c0.221-0.491,0.44-0.984,0.67-1.47c0.225-0.475,0.461-0.944,0.694-1.415c0.238-0.48,0.473-0.961,0.719-1.436 c0.243-0.468,0.496-0.93,0.747-1.393c0.254-0.469,0.505-0.938,0.767-1.402c0.26-0.46,0.53-0.913,0.797-1.368 c0.27-0.458,0.538-0.917,0.817-1.371c0.277-0.451,0.563-0.895,0.848-1.341c0.286-0.447,0.57-0.894,0.864-1.336 s0.596-0.878,0.898-1.314c0.301-0.435,0.601-0.87,0.909-1.3c0.31-0.432,0.629-0.858,0.948-1.285 c0.316-0.423,0.631-0.846,0.954-1.263c0.326-0.421,0.66-0.836,0.994-1.252c0.331-0.412,0.663-0.823,1.001-1.229 c0.341-0.408,0.689-0.811,1.037-1.213c0.347-0.401,0.695-0.802,1.05-1.198c0.355-0.396,0.718-0.786,1.08-1.176 c0.362-0.389,0.724-0.776,1.093-1.158c0.37-0.384,0.747-0.762,1.125-1.139c0.377-0.377,0.756-0.752,1.14-1.123 c0.383-0.369,0.772-0.733,1.163-1.096c0.392-0.364,0.786-0.727,1.185-1.085c0.398-0.356,0.8-0.707,1.205-1.056 c0.406-0.351,0.815-0.7,1.228-1.044c0.411-0.342,0.826-0.679,1.244-1.014c0.421-0.338,0.845-0.673,1.273-1.004 c0.423-0.326,0.85-0.648,1.279-0.968c0.436-0.325,0.875-0.646,1.319-0.963c0.434-0.311,0.872-0.617,1.313-0.921 c0.452-0.311,0.906-0.618,1.364-0.921c0.445-0.294,0.894-0.585,1.345-0.872c0.467-0.297,0.937-0.59,1.41-0.878 c0.456-0.278,0.915-0.553,1.377-0.823c0.48-0.281,0.964-0.558,1.451-0.831c0.467-0.262,0.937-0.521,1.41-0.775 c0.495-0.266,0.994-0.527,1.496-0.785c0.476-0.245,0.954-0.486,1.436-0.723c0.379-0.186,0.762-0.366,1.145-0.547 c11.239,5.908,24.018,9.27,37.572,9.27c13.555,0,26.333-3.362,37.572-9.27c0.38,0.18,0.76,0.359,1.136,0.543 c0.488,0.24,0.971,0.484,1.453,0.731c0.496,0.255,0.99,0.513,1.48,0.776c0.478,0.257,0.953,0.519,1.425,0.784 c0.481,0.27,0.959,0.543,1.433,0.821c0.469,0.274,0.934,0.553,1.396,0.835c0.467,0.285,0.93,0.573,1.39,0.866 c0.458,0.291,0.912,0.585,1.363,0.884c0.453,0.299,0.902,0.603,1.348,0.91c0.445,0.307,0.888,0.616,1.327,0.93 c0.439,0.314,0.873,0.632,1.305,0.954c0.434,0.322,0.865,0.647,1.292,0.977c0.424,0.328,0.844,0.66,1.262,0.995 c0.42,0.337,0.838,0.676,1.252,1.02c0.411,0.342,0.817,0.689,1.221,1.038c0.407,0.351,0.812,0.704,1.212,1.063 c0.396,0.355,0.787,0.715,1.176,1.076c0.394,0.366,0.787,0.734,1.174,1.107c0.381,0.367,0.756,0.739,1.129,1.112 c0.38,0.38,0.76,0.761,1.133,1.147c0.366,0.38,0.727,0.764,1.086,1.15c0.366,0.393,0.731,0.787,1.089,1.186 c0.352,0.392,0.697,0.789,1.041,1.187c0.351,0.405,0.702,0.811,1.045,1.223c0.337,0.403,0.666,0.812,0.995,1.221 c0.336,0.418,0.672,0.835,1,1.259c0.322,0.415,0.635,0.836,0.949,1.257c0.32,0.428,0.64,0.857,0.952,1.291 c0.307,0.427,0.606,0.861,0.905,1.294c0.303,0.438,0.607,0.876,0.902,1.32c0.292,0.439,0.574,0.883,0.858,1.327 c0.287,0.449,0.575,0.897,0.854,1.351c0.276,0.449,0.542,0.905,0.81,1.359c0.27,0.458,0.542,0.915,0.803,1.378 c0.261,0.462,0.511,0.93,0.764,1.396c0.252,0.465,0.506,0.929,0.749,1.398c0.246,0.474,0.48,0.955,0.718,1.434 c0.233,0.471,0.47,0.941,0.695,1.417c0.23,0.486,0.448,0.977,0.668,1.467c0.216,0.479,0.435,0.955,0.642,1.438 c0.213,0.495,0.412,0.996,0.616,1.496c0.198,0.486,0.4,0.97,0.589,1.46c0.196,0.507,0.379,1.02,0.566,1.532 c0.179,0.489,0.362,0.976,0.532,1.469c0.18,0.521,0.346,1.048,0.516,1.573c0.159,0.491,0.324,0.98,0.474,1.475 c0.163,0.533,0.31,1.072,0.463,1.609c0.14,0.493,0.286,0.984,0.418,1.481c0.145,0.547,0.274,1.099,0.409,1.65 c0.121,0.493,0.248,0.985,0.36,1.481c0.127,0.562,0.237,1.129,0.354,1.694c0.101,0.491,0.209,0.98,0.302,1.474 c0.109,0.578,0.199,1.161,0.297,1.743c0.081,0.487,0.171,0.971,0.244,1.461c0.09,0.603,0.162,1.211,0.24,1.817 c0.061,0.473,0.131,0.943,0.184,1.418c0.072,0.642,0.124,1.289,0.182,1.935c0.04,0.444,0.09,0.885,0.123,1.33 c0.055,0.733,0.088,1.471,0.124,2.208c0.018,0.361,0.047,0.721,0.06,1.083c0.041,1.103,0.062,2.209,0.062,3.319v11.319v13.757 H98.121z M294.015,288.12c-0.196-2.436-0.478-4.857-0.836-7.263c-0.057-0.381-0.125-0.759-0.186-1.139 c-0.139-0.871-0.284-1.74-0.445-2.606c-0.085-0.456-0.178-0.91-0.269-1.365c-0.157-0.791-0.321-1.58-0.496-2.366 c-0.106-0.474-0.216-0.948-0.328-1.42c-0.183-0.772-0.375-1.541-0.575-2.308c-0.121-0.465-0.242-0.929-0.37-1.393 c-0.219-0.798-0.453-1.592-0.691-2.385c-0.126-0.418-0.246-0.837-0.377-1.254c-0.295-0.939-0.607-1.873-0.928-2.805 c-0.09-0.26-0.172-0.523-0.264-0.783c-0.422-1.195-0.865-2.383-1.33-3.564c-0.1-0.253-0.209-0.503-0.311-0.756 c-0.369-0.917-0.747-1.832-1.142-2.74c-0.175-0.403-0.36-0.801-0.54-1.202c-0.34-0.756-0.684-1.509-1.042-2.257 c-0.209-0.438-0.425-0.873-0.64-1.308c-0.351-0.71-0.71-1.417-1.077-2.12c-0.23-0.44-0.461-0.878-0.697-1.315 c-0.38-0.703-0.77-1.401-1.166-2.097c-0.238-0.418-0.473-0.836-0.716-1.251c-0.44-0.751-0.895-1.494-1.355-2.236 c-0.214-0.346-0.422-0.695-0.64-1.038c-0.685-1.079-1.387-2.15-2.113-3.209c-0.676-0.986-1.371-1.954-2.075-2.914 c-0.204-0.278-0.412-0.553-0.618-0.829c-0.541-0.723-1.09-1.437-1.647-2.145c-0.201-0.255-0.4-0.513-0.604-0.766 c-0.739-0.922-1.49-1.834-2.257-2.729c-0.1-0.116-0.203-0.229-0.303-0.345c-0.676-0.783-1.364-1.555-2.061-2.317 c-0.24-0.262-0.481-0.521-0.723-0.781c-0.618-0.663-1.245-1.318-1.879-1.964c-0.209-0.213-0.414-0.428-0.625-0.639 c-0.825-0.828-1.663-1.644-2.513-2.444c-0.175-0.165-0.355-0.325-0.531-0.489c-0.695-0.645-1.397-1.28-2.107-1.906 c-0.27-0.238-0.542-0.474-0.814-0.71c-0.708-0.611-1.423-1.212-2.146-1.804c-0.197-0.161-0.39-0.326-0.588-0.486 c-0.906-0.732-1.825-1.448-2.754-2.15c-0.232-0.175-0.468-0.345-0.701-0.518c-0.728-0.54-1.461-1.072-2.203-1.594 c-0.291-0.205-0.582-0.409-0.874-0.611c-0.828-0.571-1.663-1.131-2.507-1.679c-0.148-0.096-0.293-0.196-0.441-0.291 c-0.852-0.547-1.71-1.084-2.578-1.608c0.224-0.213,0.434-0.44,0.655-0.656c0.62-0.6,1.229-1.21,1.829-1.83 c0.335-0.346,0.668-0.693,0.996-1.045c0.655-0.7,1.293-1.414,1.923-2.137c0.268-0.307,0.537-0.612,0.8-0.924 c0.671-0.794,1.323-1.605,1.964-2.426c0.21-0.268,0.425-0.532,0.631-0.803c0.643-0.845,1.264-1.707,1.875-2.577 c3.902,0.573,7.834,0.863,11.754,0.863c13.555,0,26.333-3.362,37.572-9.271c30.855,14.618,50.548,45.373,50.548,79.631v25.074 H294.015z"/></symbol></svg>