<svg xmlns="http://www.w3.org/2000/svg" style="display: none;"><symbol id="user" viewBox="0 0 512 512"><title>user</title><path d="m437.019531 74.980469c-48.351562-48.351563-112.640625-74.980469-181.019531-74.980469s-132.667969 26.628906-181.019531 74.980469c-48.351563 48.351562-74.980469 112.640625-74.980469 181.019531s26.628906 132.667969 74.980469 181.019531c48.351562 48.351563 112.640625 74.980469 181.019531 74.980469s132.667969-26.628906 181.019531-74.980469c48.351563-48.351562 74.980469-112.640625 74.980469-181.019531s-26.628906-132.667969-74.980469-181.019531zm-325.914062 354.316406c8.453125-72.734375 70.988281-128.890625 144.894531-128.890625 38.960938 0 75.597656 15.179688 103.15625 42.734375 23.28125 23.285156 37.964844 53.6875 41.742188 86.152344-39.257813 32.878906-89.804688 52.707031-144.898438 52.707031s-105.636719-19.824219-144.894531-52.703125zm144.894531-159.789063c-42.871094 0-77.753906-34.882812-77.753906-77.753906 0-42.875 34.882812-77.753906 77.753906-77.753906s77.753906 34.878906 77.753906 77.753906c0 42.871094-34.882812 77.753906-77.753906 77.753906zm170.71875 134.425782c-7.644531-30.820313-23.585938-59.238282-46.351562-82.003906-18.4375-18.4375-40.25-32.269532-64.039063-40.9375 28.597656-19.394532 47.425781-52.160157 47.425781-89.238282 0-59.414062-48.339844-107.753906-107.753906-107.753906s-107.753906 48.339844-107.753906 107.753906c0 37.097656 18.84375 69.875 47.464844 89.265625-21.886719 7.976563-42.140626 20.308594-59.566407 36.542969-25.234375 23.5-42.757812 53.464844-50.882812 86.347656-34.410157-39.667968-55.261719-91.398437-55.261719-147.910156 0-124.617188 101.382812-226 226-226s226 101.382812 226 226c0 56.523438-20.859375 108.265625-55.28125 147.933594zm0 0"/></symbol><symbol id="verified" viewBox="0 0 512 512"><title>verified</title><g> <g> <path d="M437.019,74.98C388.667,26.629,324.38,0,256,0C187.619,0,123.331,26.629,74.98,74.98C26.628,123.332,0,187.62,0,256 s26.628,132.667,74.98,181.019C123.332,485.371,187.619,512,256,512c68.38,0,132.667-26.629,181.019-74.981 C485.371,388.667,512,324.38,512,256S485.371,123.333,437.019,74.98z M256,482C131.383,482,30,380.617,30,256S131.383,30,256,30 s226,101.383,226,226S380.617,482,256,482z"/> </g> </g><g> <g> <path d="M378.305,173.859c-5.857-5.856-15.355-5.856-21.212,0.001L224.634,306.319l-69.727-69.727 c-5.857-5.857-15.355-5.857-21.213,0c-5.858,5.857-5.858,15.355,0,21.213l80.333,80.333c2.929,2.929,6.768,4.393,10.606,4.393 c3.838,0,7.678-1.465,10.606-4.393l143.066-143.066C384.163,189.215,384.163,179.717,378.305,173.859z"/> </g> </g></symbol><symbol id="dry-clean" viewBox="0 0 512 512"><title>dry-clean</title><path d="M256,0C115.03,0,0,115.05,0,256c0,140.97,115.05,256,256,256c140.97,0,256-115.05,256-256C512,115.03,396.95,0,256,0z M256,482C131.383,482,30,380.617,30,256S131.383,30,256,30s226,101.383,226,226S380.617,482,256,482z"/></symbol><symbol id="menu" viewBox="0 -53 384 384"><title>menu</title><path d="m368 154.667969h-352c-8.832031 0-16-7.167969-16-16s7.167969-16 16-16h352c8.832031 0 16 7.167969 16 16s-7.167969 16-16 16zm0 0"/><path d="m368 32h-352c-8.832031 0-16-7.167969-16-16s7.167969-16 16-16h352c8.832031 0 16 7.167969 16 16s-7.167969 16-16 16zm0 0"/><path d="m368 277.332031h-352c-8.832031 0-16-7.167969-16-16s7.167969-16 16-16h352c8.832031 0 16 7.167969 16 16s-7.167969 16-16 16zm0 0"/></symbol><symbol id="close" viewBox="0 0 512 512"><title>close</title><path d="m25 512a25 25 0 0 1 -17.68-42.68l462-462a25 25 0 0 1 35.36 35.36l-462 462a24.93 24.93 0 0 1 -17.68 7.32z"/><path d="m487 512a24.93 24.93 0 0 1 -17.68-7.32l-462-462a25 25 0 0 1 35.36-35.36l462 462a25 25 0 0 1 -17.68 42.68z"/></symbol><symbol id="edit" viewBox="0 0 64 64"><title>edit</title><g><path d="m11.105 43.597c-.512 0-1.023-.195-1.414-.586-.781-.781-.781-2.047 0-2.828l31.254-31.254c.78-.781 2.047-.781 2.828 0s.781 2.047 0 2.828l-31.254 31.254c-.39.39-.902.586-1.414.586z"/></g><g><path d="m8.017 58c-.139 0-.28-.015-.421-.045-1.08-.232-1.768-1.295-1.536-2.375l3.09-14.403c.232-1.08 1.3-1.766 2.375-1.536 1.08.232 1.768 1.295 1.536 2.375l-3.09 14.403c-.201.939-1.031 1.581-1.954 1.581z"/></g><g><path d="m22.418 54.91c-.512 0-1.023-.195-1.414-.586-.781-.781-.781-2.047 0-2.828l31.254-31.253c.78-.781 2.047-.781 2.828 0s.781 2.047 0 2.828l-31.253 31.253c-.391.391-.903.586-1.415.586z"/></g><g><path d="m8.013 58c-.923 0-1.752-.642-1.954-1.581-.231-1.08.456-2.143 1.536-2.375l14.403-3.09c1.081-.229 2.144.457 2.375 1.536.231 1.08-.456 2.143-1.536 2.375l-14.403 3.09c-.141.031-.282.045-.421.045z"/></g><g><path d="m48.015 29.313c-.512 0-1.024-.195-1.414-.586l-11.313-11.313c-.781-.781-.781-2.047 0-2.828.78-.781 2.048-.781 2.828 0l11.313 11.313c.781.781.781 2.047 0 2.828-.39.391-.902.586-1.414.586z"/></g><g><path d="m53.672 23.657c-.512 0-1.024-.195-1.415-.586-.781-.781-.781-2.047 0-2.829 1.113-1.113 1.726-2.62 1.726-4.242s-.613-3.129-1.726-4.242c-1.114-1.114-2.621-1.727-4.243-1.727s-3.129.613-4.242 1.727c-.78.781-2.046.782-2.829 0-.781-.781-.781-2.047 0-2.829 1.868-1.869 4.379-2.898 7.071-2.898 2.691 0 5.203 1.029 7.071 2.898 1.869 1.868 2.898 4.379 2.898 7.071s-1.029 5.203-2.898 7.071c-.389.39-.901.586-1.413.586z"/></g></symbol><symbol id="trash" viewBox="0 0 512 512"><title>trash</title><path d="m424 64h-88v-16c0-26.467-21.533-48-48-48h-64c-26.467 0-48 21.533-48 48v16h-88c-22.056 0-40 17.944-40 40v56c0 8.836 7.164 16 16 16h8.744l13.823 290.283c1.221 25.636 22.281 45.717 47.945 45.717h242.976c25.665 0 46.725-20.081 47.945-45.717l13.823-290.283h8.744c8.836 0 16-7.164 16-16v-56c0-22.056-17.944-40-40-40zm-216-16c0-8.822 7.178-16 16-16h64c8.822 0 16 7.178 16 16v16h-96zm-128 56c0-4.411 3.589-8 8-8h336c4.411 0 8 3.589 8 8v40c-4.931 0-331.567 0-352 0zm313.469 360.761c-.407 8.545-7.427 15.239-15.981 15.239h-242.976c-8.555 0-15.575-6.694-15.981-15.239l-13.751-288.761h302.44z"/><path d="m256 448c8.836 0 16-7.164 16-16v-208c0-8.836-7.164-16-16-16s-16 7.164-16 16v208c0 8.836 7.163 16 16 16z"/><path d="m336 448c8.836 0 16-7.164 16-16v-208c0-8.836-7.164-16-16-16s-16 7.164-16 16v208c0 8.836 7.163 16 16 16z"/><path d="m176 448c8.836 0 16-7.164 16-16v-208c0-8.836-7.164-16-16-16s-16 7.164-16 16v208c0 8.836 7.163 16 16 16z"/></symbol><symbol id="plus" viewBox="0 0 426.66667 426.66667"><title>plus</title><path d="m405.332031 192h-170.664062v-170.667969c0-11.773437-9.558594-21.332031-21.335938-21.332031-11.773437 0-21.332031 9.558594-21.332031 21.332031v170.667969h-170.667969c-11.773437 0-21.332031 9.558594-21.332031 21.332031 0 11.777344 9.558594 21.335938 21.332031 21.335938h170.667969v170.664062c0 11.777344 9.558594 21.335938 21.332031 21.335938 11.777344 0 21.335938-9.558594 21.335938-21.335938v-170.664062h170.664062c11.777344 0 21.335938-9.558594 21.335938-21.335938 0-11.773437-9.558594-21.332031-21.335938-21.332031zm0 0"/></symbol><symbol id="down-arrow" viewBox="0 0 128 128"><title>down-arrow</title><path id="Down_Arrow_3_" d="m64 88c-1.023 0-2.047-.391-2.828-1.172l-40-40c-1.563-1.563-1.563-4.094 0-5.656s4.094-1.563 5.656 0l37.172 37.172 37.172-37.172c1.563-1.563 4.094-1.563 5.656 0s1.563 4.094 0 5.656l-40 40c-.781.781-1.805 1.172-2.828 1.172z"/></symbol><symbol id="no-connection" viewBox="0 0 512 512"><title>no-connection</title><path d="m47.133 190.667h16.067c19.872-.733 19.874-29.266 0-30h-16.067c-19.871.733-19.874 29.266 0 30z"/><path d="m464.867 321.334h-16.067c-19.871.733-19.874 29.266 0 30h16.067c19.871-.734 19.874-29.267 0-30z"/><path d="m175.667 78.2c8.284 0 15-6.716 15-15v-16.067c-.733-19.872-29.266-19.874-30 0v16.067c0 8.284 6.715 15 15 15z"/><path d="m336.333 433.8c-8.284 0-15 6.716-15 15v16.067c.733 19.871 29.266 19.874 30 0v-16.067c0-8.284-6.715-15-15-15z"/><path d="m85.514 106.731c14.552 13.555 34.757-6.592 21.245-21.182 0 0-11.327-11.361-11.327-11.361-14.551-13.554-34.758 6.589-21.245 21.182 0 .001 11.327 11.361 11.327 11.361z"/><path d="m426.486 405.269c-14.551-13.554-34.758 6.589-21.245 21.182 0 0 11.327 11.361 11.327 11.361 14.552 13.555 34.757-6.592 21.245-21.182 0-.001-11.327-11.361-11.327-11.361z"/><path d="m507.607 49.849-45.456-45.456c-5.858-5.858-15.355-5.858-21.213 0l-60.811 60.811c-37.265-27.007-89.834-23.756-123.42 9.791 0 0-34.034 34.055-34.039 34.059-5.867 5.858-5.865 15.366-.009 21.223l159.059 159.052c5.855 5.854 15.346 5.857 21.204.009l34.064-34.085c33.708-33.667 36.927-86.097 9.799-123.369l60.821-60.821c5.858-5.859 5.858-15.356.001-21.214zm-91.841 184.197-23.438 23.466-137.845-137.84 23.444-23.472c25.494-25.463 66.977-25.464 92.441-.03l45.418 45.473c25.506 25.474 25.633 66.783-.02 92.403zm10.629-124.233-24.193-24.223 49.337-49.375 24.243 24.229z"/><path d="m288.565 380.948s34.836-34.814 34.838-34.816c18.305-18.31 18.499-48.149-.001-66.656-18.34-18.341-48.263-18.42-66.698.017l-34.771 34.825-24.241-24.24s34.853-34.832 34.855-34.833c18.343-18.348 18.464-48.186-.001-66.656-18.363-18.364-48.295-18.388-66.678-.004l-34.846 34.826c-5.735-6.467-15.816-6.914-21.944-.748 0 0-34.064 34.085-34.064 34.085-33.705 33.664-36.929 86.095-9.799 123.369l-60.822 60.821c-5.858 5.858-5.858 15.355 0 21.213l45.456 45.456c5.858 5.858 15.355 5.858 21.213 0l60.81-60.81c37.28 27.019 89.851 23.739 123.421-9.791 0 0 34.034-34.056 34.038-34.061 6.159-5.892 5.686-16.506-.766-21.997zm-101.488-171.147c16.675-15.436 39.694 7.559 24.26 24.227 0 0-34.868 34.846-34.868 34.846l-24.25-24.236zm-126.615 265.985-24.244-24.23 49.387-49.369 24.193 24.224zm173.611-59.986c-25.495 25.463-66.977 25.463-92.441.03l-45.418-45.475c-25.509-25.477-25.629-66.785.021-92.402l23.438-23.466 137.845 137.839zm9.072-80.268 34.789-34.844c6.675-6.675 17.57-6.684 24.253-.001 6.692 6.693 6.674 17.557.002 24.232l-34.854 34.833z"/></symbol><symbol id="right-arrow" viewBox="0 0 512 512"><title>right-arrow</title><path d="M506.134,241.843c-0.006-0.006-0.011-0.013-0.018-0.019l-104.504-104c-7.829-7.791-20.492-7.762-28.285,0.068 c-7.792,7.829-7.762,20.492,0.067,28.284L443.558,236H20c-11.046,0-20,8.954-20,20c0,11.046,8.954,20,20,20h423.557 l-70.162,69.824c-7.829,7.792-7.859,20.455-0.067,28.284c7.793,7.831,20.457,7.858,28.285,0.068l104.504-104 c0.006-0.006,0.011-0.013,0.018-0.019C513.968,262.339,513.943,249.635,506.134,241.843z"/></symbol><symbol id="search" viewBox="0 0 461.516 461.516"><title>search</title><path d="m185.746 371.332c41.251.001 81.322-13.762 113.866-39.11l122.778 122.778c9.172 8.858 23.787 8.604 32.645-.568 8.641-8.947 8.641-23.131 0-32.077l-122.778-122.778c62.899-80.968 48.252-197.595-32.716-260.494s-197.594-48.252-260.493 32.716-48.252 197.595 32.716 260.494c32.597 25.323 72.704 39.06 113.982 39.039zm-98.651-284.273c54.484-54.485 142.82-54.486 197.305-.002s54.486 142.82.002 197.305-142.82 54.486-197.305.002c-.001-.001-.001-.001-.002-.002-54.484-54.087-54.805-142.101-.718-196.585.239-.24.478-.479.718-.718z"/></symbol><symbol id="x-mark" viewBox="0 0 512 512"><title>x-mark</title><path d="m256 512c-141.160156 0-256-114.839844-256-256s114.839844-256 256-256 256 114.839844 256 256-114.839844 256-256 256zm0-475.429688c-120.992188 0-219.429688 98.4375-219.429688 219.429688s98.4375 219.429688 219.429688 219.429688 219.429688-98.4375 219.429688-219.429688-98.4375-219.429688-219.429688-219.429688zm0 0"/><path d="m347.429688 365.714844c-4.679688 0-9.359376-1.785156-12.929688-5.359375l-182.855469-182.855469c-7.144531-7.144531-7.144531-18.714844 0-25.855469 7.140625-7.140625 18.714844-7.144531 25.855469 0l182.855469 182.855469c7.144531 7.144531 7.144531 18.714844 0 25.855469-3.570313 3.574219-8.246094 5.359375-12.925781 5.359375zm0 0"/><path d="m164.570312 365.714844c-4.679687 0-9.355468-1.785156-12.925781-5.359375-7.144531-7.140625-7.144531-18.714844 0-25.855469l182.855469-182.855469c7.144531-7.144531 18.714844-7.144531 25.855469 0 7.140625 7.140625 7.144531 18.714844 0 25.855469l-182.855469 182.855469c-3.570312 3.574219-8.25 5.359375-12.929688 5.359375zm0 0"/></symbol><symbol id="more" viewBox="0 0 409.6 409.6"><title>more</title><g> <g> <path d="M204.8,0C91.684,0,0,91.699,0,204.8s91.684,204.8,204.8,204.8c113.101,0,204.8-91.699,204.8-204.8S317.901,0,204.8,0z M204.8,375.465c-94.264,0-170.665-76.416-170.665-170.665S110.536,34.135,204.8,34.135c94.249,0,170.665,76.416,170.665,170.665 S299.049,375.465,204.8,375.465z"/> </g> </g><g> <g> <path d="M204.8,170.665c-18.867,0-34.135,15.299-34.135,34.135c0,18.852,15.268,34.135,34.135,34.135 c18.852,0,34.135-15.283,34.135-34.135C238.935,185.964,223.652,170.665,204.8,170.665z"/> </g> </g><g> <g> <path d="M102.4,170.665c-18.867,0-34.135,15.299-34.135,34.135c0,18.852,15.268,34.135,34.135,34.135 c18.852,0,34.135-15.283,34.135-34.135C136.535,185.964,121.252,170.665,102.4,170.665z"/> </g> </g><g> <g> <path d="M307.2,170.665c-18.867,0-34.135,15.299-34.135,34.135c0,18.852,15.268,34.135,34.135,34.135 c18.852,0,34.135-15.283,34.135-34.135C341.335,185.964,326.052,170.665,307.2,170.665z"/> </g> </g></symbol><symbol id="file" viewBox="0 0 512 512"><title>file</title><g> <g> <path d="M436,60h-15V45c0-24.813-20.187-45-45-45H76C51.187,0,31,20.187,31,45v362c0,24.813,20.187,45,45,45h15v15 c0,24.813,20.187,45,45,45h300c24.813,0,45-20.187,45-45V105C481,80.187,460.813,60,436,60z M104.18,115.607 C95.68,124.106,91,135.406,91,147.426V422H76c-8.271,0-15-6.729-15-15V45c0-8.271,6.729-15,15-15h300c8.271,0,15,6.729,15,15v15 H178.426c-12.02,0-23.32,4.681-31.819,13.18L104.18,115.607z M181,90v60h-60v-2.574c0-4.006,1.56-7.773,4.393-10.606 l42.427-42.427c2.833-2.833,6.6-4.393,10.606-4.393H181z M451,467c0,8.271-6.729,15-15,15H136c-8.271,0-15-6.729-15-15V180h75 c8.284,0,15-6.716,15-15V90h225c8.271,0,15,6.729,15,15V467z"/> </g> </g><g> <g> <path d="M406,212H166c-8.284,0-15,6.716-15,15s6.716,15,15,15h240c8.284,0,15-6.716,15-15S414.284,212,406,212z"/> </g> </g><g> <g> <path d="M406,272H166c-8.284,0-15,6.716-15,15s6.716,15,15,15h240c8.284,0,15-6.716,15-15S414.284,272,406,272z"/> </g> </g><g> <g> <path d="M406,332H166c-8.284,0-15,6.716-15,15s6.716,15,15,15h240c8.284,0,15-6.716,15-15S414.284,332,406,332z"/> </g> </g><g> <g> <path d="M406,392H166c-8.284,0-15,6.716-15,15s6.716,15,15,15h240c8.284,0,15-6.716,15-15S414.284,392,406,392z"/> </g> </g></symbol><symbol id="like" viewBox="0 0 512 512"><title>like</title><path d="m376 43.836c-42.115 0-78.797 18.705-106.079 54.091-5.533 7.176-10.142 14.352-13.921 21.001-3.779-6.65-8.388-13.825-13.921-21.001-27.282-35.386-63.964-54.091-106.079-54.091-78.28 0-136 60.545-136 136.121 0 39.918 16.799 77.026 52.868 116.779 32.086 35.364 78.38 72.015 131.985 114.454 55.952 44.298 60.387 48.32 71.146 56.973 10.42-8.381 15.33-12.782 71.146-56.973 104.312-82.58 184.855-144.209 184.855-231.232 0-75.472-57.615-136.122-136-136.122zm-67.475 343.833c-16.884 13.367-34.258 27.122-52.525 41.866-18.268-14.744-35.642-28.499-52.525-41.866-104.463-82.702-173.475-137.339-173.475-207.711 0-60.499 45.57-106.121 106-106.121 32.633 0 60.141 14.025 81.759 41.685 16.875 21.591 23.765 43.771 23.877 44.137l.002.007c14.852.033 13.853.031 28.705.064l.02-.067c.067-.222 6.947-22.477 23.878-44.14 21.618-27.66 49.126-41.685 81.759-41.685 60.43 0 106 45.622 106 106.121 0 70.371-69.012 125.008-173.475 207.71z"/></symbol></svg>