<svg xmlns="http://www.w3.org/2000/svg" xmlns:xlink="http://www.w3.org/1999/xlink" width="315.5" height="54" viewBox="0 0 315.5 54">
  <defs>
    <rect id="rect-1" width="30" height="30" x="285.5" y="0"/>
    <mask id="mask-2" maskContentUnits="userSpaceOnUse" maskUnits="userSpaceOnUse">
      <rect width="315.5" height="54" x="0" y="0" fill="black"/>
      <use fill="white" xlink:href="#rect-1"/>
    </mask>
  </defs>
  <g>
    <text font-size="0" style="white-space:pre">
      <tspan x="0" y="36" fill="rgb(58,58,58)" font-family="Alex Brush" font-size="42" font-weight="400" style="white-space:pre;text-transform:none">Wedding Planner</tspan>
    </text>
    <g>
      <use fill="none" xlink:href="#rect-1"/>
      <g mask="url(#mask-2)">
        <path fill="rgb(0,0,0)" fill-rule="evenodd" d="M301.31567383 5.73791504c1.59857178-2.07339478 3.74789429-3.16940308 6.21557617-3.16940308 4.59286499 0 7.96875 3.55371094 7.96875 7.97589112 0 5.09899902-4.71932983 8.710083-10.83135986 13.54876709-3.27044678 2.58929443-3.5581665 2.84716796-4.16870118 3.33825683-.6304016-.50701904-.89025878-.74267578-4.16870117-3.33825683-3.14093017-2.48666382-5.85345459-4.6341858-7.73348999-6.70629883C286.48431396 15.05758667 285.5 12.88330078 285.5 10.54434204c0-4.42828369 3.38201904-7.97583008 7.96875-7.97583008 2.46768188 0 4.6170044 1.0960083 6.21557617 3.16940308.32418823.42047119.59423828.84088135.81567383 1.23052978.22143555-.3895874.4914856-.81005859.81567383-1.23052978zM300.5 25.1680603c1.07034302-.8638916 2.08834839-1.66986084 3.07763672-2.45309448 6.12088013-4.84579468 10.16455078-8.04718018 10.16455078-12.1705017 0-3.54486085-2.67010498-6.21801759-6.2109375-6.21801759-1.91207886 0-3.52389526.82177735-4.79055786 2.44247437-.99206543 1.26931763-1.39517212 2.57333374-1.39910889 2.58633423l-.00115967.00393676-1.6819458-.00375366c-.00668335-.02185058-.41040039-1.32147217-1.39916992-2.58657837-1.2666626-1.62069702-2.878479-2.44247436-4.79055786-2.44247436-3.54083252 0-6.2109375 2.67315674-6.2109375 6.21801758 0 4.12338256 4.04367065 7.32476806 10.16455078 12.17056274.9892273.78323364 2.00723267 1.58920288 3.07763672 2.45309448z"/>
      </g>
    </g>
  </g>
</svg>
