<?xml version="1.0" encoding="UTF-8" standalone="no"?><!DOCTYPE svg PUBLIC "-//W3C//DTD SVG 1.1//EN" "http://www.w3.org/Graphics/SVG/1.1/DTD/svg11.dtd"><svg width="100%" height="100%" viewBox="0 0 1334 242" version="1.1" xmlns="http://www.w3.org/2000/svg" xmlns:xlink="http://www.w3.org/1999/xlink" xml:space="preserve" style="fill-rule:evenodd;clip-rule:evenodd;stroke-linejoin:round;stroke-miterlimit:2;"><g><g><path d="M37.975,186.267c-2.1,-0 -3.15,-1.342 -3.15,-4.025c-0,-2.567 1.05,-5.834 3.15,-9.8l33.775,-48.65c10.383,-14.934 18.083,-27.184 23.1,-36.75c5.017,-9.567 7.525,-16.334 7.525,-20.3c0,-1.867 -0.7,-3.267 -2.1,-4.2c-1.4,-0.934 -3.033,-1.575 -4.9,-1.925c-1.867,-0.35 -3.617,-0.525 -5.25,-0.525c-9.917,-0 -23.742,6.066 -41.475,18.2c-5.017,3.383 -9.625,7.175 -13.825,11.375c-4.2,4.2 -8.108,8.691 -11.725,13.475c-7,9.566 -10.5,17.616 -10.5,24.15c0,5.016 2.333,8.05 7,9.1c1.75,0.466 3.733,0.7 5.95,0.7c4.2,-0 8.4,-1.05 12.6,-3.15c4.2,-2.1 8.283,-4.784 12.25,-8.05c3.033,-2.567 4.783,-3.85 5.25,-3.85c0.467,-0 0.642,0.408 0.525,1.225c-0.7,2.45 -2.392,4.783 -5.075,7c-2.683,2.216 -5.892,4.229 -9.625,6.037c-3.733,1.809 -7.496,3.209 -11.287,4.2c-3.792,0.992 -7.146,1.488 -10.063,1.488c-4.667,-0 -8.75,-1.196 -12.25,-3.588c-3.5,-2.391 -5.25,-5.921 -5.25,-10.587c0,-7.117 4.142,-15.867 12.425,-26.25c7.933,-10.034 17.733,-18.959 29.4,-26.775c4.783,-3.267 10.383,-6.388 16.8,-9.363c6.417,-2.975 12.892,-5.425 19.425,-7.35c6.533,-1.925 12.367,-2.887 17.5,-2.887c9.217,-0 13.825,3.033 13.825,9.1c0,7.35 -5.542,20.008 -16.625,37.975c-7.817,12.366 -18.142,27.066 -30.975,44.1c-10.617,14.116 -15.983,21.175 -16.1,21.175c0.35,-0 5.95,-6.009 16.8,-18.025c6.65,-7.467 12.921,-14.146 18.813,-20.038c5.891,-5.891 11.345,-11.054 16.362,-15.487c2.45,-2.217 5.425,-4.988 8.925,-8.313c3.5,-3.325 7.583,-7.204 12.25,-11.637c4.083,-3.734 8.079,-7.117 11.988,-10.15c3.908,-3.034 7.495,-4.55 10.762,-4.55c3.383,-0 5.6,0.816 6.65,2.45c-10.733,13.3 -20.767,29.575 -30.1,48.825c-6.65,13.766 -9.975,24.208 -9.975,31.325c0,4.2 1.108,7.233 3.325,9.1c2.217,1.866 5.133,2.8 8.75,2.8c3.967,-0 8.137,-1.109 12.512,-3.325c4.375,-2.217 8.721,-5.075 13.038,-8.575c4.317,-3.5 8.342,-7.175 12.075,-11.025c13.417,-13.534 24.092,-28.175 32.025,-43.925c6.183,-12.367 9.275,-22.225 9.275,-29.575c-0,-0.7 -0.029,-1.342 -0.088,-1.925c-0.058,-0.584 -0.145,-1.109 -0.262,-1.575c-2.45,-0 -5.075,-1.284 -7.875,-3.85c-1.75,-1.4 -2.625,-2.859 -2.625,-4.375c-0,-1.4 0.583,-2.567 1.75,-3.5c1.167,-0.934 2.508,-1.4 4.025,-1.4c2.217,-0 3.85,0.991 4.9,2.975c0.467,0.933 1.4,2.1 2.8,3.5c0.933,0.933 1.342,1.633 1.225,2.1c0.7,1.05 1.867,1.575 3.5,1.575c1.633,-0 3.179,-0.7 4.637,-2.1c1.459,-1.4 3.063,-2.1 4.813,-2.1c0.933,-0 1.4,0.35 1.4,1.05c-0,1.283 -1.108,2.508 -3.325,3.675c-1.167,0.816 -2.567,1.341 -4.2,1.575c-0.933,0.116 -1.867,0.204 -2.8,0.262c-0.933,0.059 -1.867,-0.029 -2.8,-0.262c1.4,4.666 2.1,8.108 2.1,10.325c-0,9.333 -4.433,21.408 -13.3,36.225c-4.433,7.466 -9.508,14.525 -15.225,21.175c-5.717,6.65 -12.133,12.891 -19.25,18.725c-14.117,11.9 -26.658,17.85 -37.625,17.85c-12.017,-0 -18.025,-5.6 -18.025,-16.8c-0,-5.25 1.108,-11.229 3.325,-17.938c2.217,-6.708 4.842,-13.387 7.875,-20.037l12.6,-27.475c-5.133,3.966 -9.304,7.204 -12.513,9.712c-3.208,2.509 -5.891,4.638 -8.05,6.388c-2.158,1.75 -4.2,3.529 -6.125,5.337c-1.925,1.809 -4.229,3.996 -6.912,6.563c-2.917,2.916 -6.825,7.087 -11.725,12.512c-4.9,5.425 -10.617,12.163 -17.15,20.213l-20.3,24.85c-1.167,1.4 -2.508,2.683 -4.025,3.85c-1.517,1.166 -3.033,1.75 -4.55,1.75Z" style="fill:#3a3a3a;fill-rule:nonzero;"/><path d="M207.55,168.942c-3.733,-0 -7.117,-1.196 -10.15,-3.588c-3.033,-2.392 -4.55,-5.571 -4.55,-9.537c0,-8.284 5.075,-17.734 15.225,-28.35c10.383,-10.734 19.658,-16.1 27.825,-16.1c2.683,-0 4.871,0.729 6.563,2.187c1.691,1.459 2.537,3.238 2.537,5.338c0,6.533 -5.192,12.95 -15.575,19.25c-9.217,5.6 -16.975,8.4 -23.275,8.4c-0.933,-0 -1.75,-0.117 -2.45,-0.35c-1.75,3.15 -2.625,6.475 -2.625,9.975c0,6.066 2.858,9.1 8.575,9.1c5.833,-0 13.358,-3.909 22.575,-11.725c7.117,-5.717 13.183,-11.784 18.2,-18.2c1.05,-1.4 1.983,-2.1 2.8,-2.1c0.7,-0 1.05,0.35 1.05,1.05c0,0.7 -0.467,1.691 -1.4,2.975c-3.267,4.316 -6.767,8.283 -10.5,11.9c-3.733,3.616 -7.758,6.941 -12.075,9.975c-8.983,6.533 -16.567,9.8 -22.75,9.8Zm1.05,-26.25c4.433,-0 10.208,-2.217 17.325,-6.65c2.333,-1.634 4.638,-3.471 6.913,-5.513c2.275,-2.042 4.141,-4.112 5.6,-6.212c1.458,-2.1 2.187,-3.967 2.187,-5.6c0,-1.517 -1.225,-2.275 -3.675,-2.275c-3.5,-0 -8.4,2.625 -14.7,7.875c-3.033,2.566 -5.95,5.366 -8.75,8.4c-2.8,3.033 -5.192,6.241 -7.175,9.625c0.7,0.233 1.458,0.35 2.275,0.35Z" style="fill:#3a3a3a;fill-rule:nonzero;"/><path d="M255.325,167.542c-3.5,-0 -6.475,-0.963 -8.925,-2.888c-2.45,-1.925 -3.85,-4.287 -4.2,-7.087c-0.467,-3.734 0.088,-7.496 1.662,-11.288c1.576,-3.791 3.734,-7.437 6.476,-10.937c2.741,-3.5 5.687,-6.767 8.837,-9.8c12.367,-12.367 23.508,-18.55 33.425,-18.55c3.383,-0 5.658,0.875 6.825,2.625c0.467,0.583 0.992,1.925 1.575,4.025c13.067,-21.234 22.167,-31.85 27.3,-31.85c1.167,-0 2.392,0.291 3.675,0.875c1.283,0.583 1.925,1.341 1.925,2.275c0,0.583 -0.292,1.341 -0.875,2.275c-3.5,4.316 -7,8.604 -10.5,12.862c-3.5,4.258 -6.942,8.546 -10.325,12.863c-5.717,7.233 -10.325,13.533 -13.825,18.9c-3.5,5.366 -6.008,9.916 -7.525,13.65c-0.467,1.166 -0.904,2.595 -1.313,4.287c-0.408,1.692 -0.612,3.413 -0.612,5.163c-0,2.216 0.467,4.141 1.4,5.775c0.933,1.633 2.625,2.45 5.075,2.45c3.85,-0 8.575,-1.867 14.175,-5.6c5.6,-3.734 12.133,-9.859 19.6,-18.375c0.467,-0.467 0.904,-0.875 1.312,-1.225c0.409,-0.35 0.846,-0.584 1.313,-0.7c1.05,-0.234 1.575,-0 1.575,0.7c-0,0.35 -0.35,0.991 -1.05,1.925c-3.617,4.316 -7.642,8.575 -12.075,12.775c-4.433,4.2 -8.954,7.67 -13.563,10.412c-4.608,2.742 -8.895,4.113 -12.862,4.113c-3.967,-0 -6.767,-1.342 -8.4,-4.025c-1.633,-2.684 -2.45,-5.717 -2.45,-9.1c-0,-3.5 0.642,-6.709 1.925,-9.625l-14.175,14.175c-3.15,3.15 -6.038,5.425 -8.663,6.825c-2.625,1.4 -4.87,2.1 -6.737,2.1Zm-1.575,-3.85c5.017,-0 13.358,-6.884 25.025,-20.65c0.583,-0.7 2.625,-3.296 6.125,-7.788c3.5,-4.492 8.458,-11.054 14.875,-19.687c-0.817,-1.4 -2.217,-2.1 -4.2,-2.1c-7.233,-0 -16.917,5.716 -29.05,17.15c-11.433,10.616 -17.15,19.541 -17.15,26.775c-0,4.2 1.458,6.3 4.375,6.3Z" style="fill:#3a3a3a;fill-rule:nonzero;"/><path d="M337.05,167.542c-3.5,-0 -6.475,-0.963 -8.925,-2.888c-2.45,-1.925 -3.85,-4.287 -4.2,-7.087c-0.467,-3.734 0.088,-7.496 1.663,-11.288c1.575,-3.791 3.733,-7.437 6.475,-10.937c2.741,-3.5 5.687,-6.767 8.837,-9.8c12.367,-12.367 23.508,-18.55 33.425,-18.55c3.383,-0 5.658,0.875 6.825,2.625c0.467,0.583 0.992,1.925 1.575,4.025c13.067,-21.234 22.167,-31.85 27.3,-31.85c1.167,-0 2.392,0.291 3.675,0.875c1.283,0.583 1.925,1.341 1.925,2.275c0,0.583 -0.292,1.341 -0.875,2.275c-3.5,4.316 -7,8.604 -10.5,12.862c-3.5,4.258 -6.942,8.546 -10.325,12.863c-5.717,7.233 -10.325,13.533 -13.825,18.9c-3.5,5.366 -6.008,9.916 -7.525,13.65c-0.467,1.166 -0.904,2.595 -1.313,4.287c-0.408,1.692 -0.612,3.413 -0.612,5.163c-0,2.216 0.467,4.141 1.4,5.775c0.933,1.633 2.625,2.45 5.075,2.45c3.85,-0 8.575,-1.867 14.175,-5.6c5.6,-3.734 12.133,-9.859 19.6,-18.375c0.467,-0.467 0.904,-0.875 1.312,-1.225c0.409,-0.35 0.846,-0.584 1.313,-0.7c1.05,-0.234 1.575,-0 1.575,0.7c-0,0.35 -0.35,0.991 -1.05,1.925c-3.617,4.316 -7.642,8.575 -12.075,12.775c-4.433,4.2 -8.954,7.67 -13.563,10.412c-4.608,2.742 -8.895,4.113 -12.862,4.113c-3.967,-0 -6.767,-1.342 -8.4,-4.025c-1.633,-2.684 -2.45,-5.717 -2.45,-9.1c-0,-3.5 0.642,-6.709 1.925,-9.625l-14.175,14.175c-3.15,3.15 -6.038,5.425 -8.663,6.825c-2.625,1.4 -4.87,2.1 -6.737,2.1Zm-1.575,-3.85c5.017,-0 13.358,-6.884 25.025,-20.65c0.583,-0.7 2.625,-3.296 6.125,-7.788c3.5,-4.492 8.458,-11.054 14.875,-19.687c-0.817,-1.4 -2.217,-2.1 -4.2,-2.1c-7.233,-0 -16.917,5.716 -29.05,17.15c-11.433,10.616 -17.15,19.541 -17.15,26.775c-0,4.2 1.458,6.3 4.375,6.3Z" style="fill:#3a3a3a;fill-rule:nonzero;"/><path d="M445.725,106.467c-1.983,-0 -3.704,-0.642 -5.162,-1.925c-1.459,-1.284 -2.188,-2.742 -2.188,-4.375c0,-3.267 2.217,-4.9 6.65,-4.9c1.633,-0 3.267,0.554 4.9,1.662c1.633,1.109 2.45,2.479 2.45,4.113c0,1.4 -0.758,2.654 -2.275,3.762c-1.517,1.109 -2.975,1.663 -4.375,1.663Zm-32.375,62.125c-2.567,-0 -4.696,-0.846 -6.387,-2.538c-1.692,-1.691 -2.538,-4.696 -2.538,-9.012c0,-2.45 0.554,-5.279 1.663,-8.488c1.108,-3.208 2.508,-6.446 4.2,-9.712c1.691,-3.267 3.354,-6.184 4.987,-8.75c6.533,-10.617 11.9,-15.984 16.1,-16.1c1.05,-0 2.333,0.437 3.85,1.312c1.517,0.875 2.275,1.838 2.275,2.888c0,-0 -4.433,5.716 -13.3,17.15c-8.75,11.316 -13.125,19.366 -13.125,24.15c0,3.733 1.458,5.6 4.375,5.6c1.867,-0 4.288,-0.788 7.263,-2.363c2.975,-1.575 6.095,-3.587 9.362,-6.037c3.267,-2.45 6.388,-5.075 9.363,-7.875c2.975,-2.8 5.395,-5.367 7.262,-7.7c1.167,-1.517 2.188,-2.567 3.063,-3.15c0.875,-0.584 1.429,-0.875 1.662,-0.875c0.467,-0 0.7,0.35 0.7,1.05c0,0.583 -0.671,1.75 -2.012,3.5c-1.342,1.75 -3.18,3.791 -5.513,6.125c-2.8,2.8 -5.892,5.833 -9.275,9.1c-3.383,3.266 -7.058,6.037 -11.025,8.312c-3.967,2.275 -8.283,3.413 -12.95,3.413Z" style="fill:#3a3a3a;fill-rule:nonzero;"/><path d="M491.225,167.017c-3.15,-0 -5.367,-0.904 -6.65,-2.713c-1.283,-1.808 -1.925,-4.054 -1.925,-6.737c0,-6.767 2.333,-14 7,-21.7l11.2,-18.2c-7.933,5.833 -15.808,13.125 -23.625,21.875c-2.1,2.333 -4.462,5.075 -7.087,8.225c-2.625,3.15 -5.513,6.766 -8.663,10.85c-4.2,5.483 -6.708,8.225 -7.525,8.225c-1.633,-0 -2.975,-0.73 -4.025,-2.188c-1.05,-1.458 -1.575,-2.771 -1.575,-3.937c0,-0.934 0.292,-2.654 0.875,-5.163c0.583,-2.508 1.283,-4.696 2.1,-6.562c0.817,-1.984 1.662,-3.938 2.537,-5.863c0.875,-1.925 1.721,-3.821 2.538,-5.687l-10.5,11.025c-0.233,0.233 -0.933,0.933 -2.1,2.1c-1.167,1.166 -2.1,1.75 -2.8,1.75c-0.583,-0 -0.875,-0.409 -0.875,-1.225c0,-0.234 0.088,-0.554 0.263,-0.963c0.175,-0.408 0.554,-0.904 1.137,-1.487c1.75,-1.75 3.558,-3.617 5.425,-5.6c1.867,-1.984 3.792,-4.259 5.775,-6.825c1.05,-1.284 2.625,-3.238 4.725,-5.863c2.1,-2.625 4.404,-5.454 6.913,-8.487c2.508,-3.034 4.87,-5.834 7.087,-8.4c0.583,-0.817 1.225,-1.371 1.925,-1.663c0.7,-0.291 1.167,-0.437 1.4,-0.437c3.15,-0 4.725,1.225 4.725,3.675c0,0.7 -0.175,1.4 -0.525,2.1c-10.5,14.466 -16.8,25.491 -18.9,33.075c13.533,-13.534 24.412,-23.713 32.637,-30.538c8.225,-6.825 14.088,-10.237 17.588,-10.237c1.867,-0 3.296,0.291 4.287,0.875c0.992,0.583 1.488,1.691 1.488,3.325c-0,0.583 -0.058,1.05 -0.175,1.4c-0.35,0.816 -2.742,4.083 -7.175,9.8c-2.683,3.266 -5.046,6.241 -7.088,8.925c-2.041,2.683 -3.704,5.016 -4.987,7c-2.1,3.266 -3.675,6.329 -4.725,9.187c-1.05,2.858 -1.575,5.279 -1.575,7.263c-0,0.816 0.117,1.808 0.35,2.975c0.233,1.166 0.933,1.75 2.1,1.75c2.683,-0 6.883,-2.334 12.6,-7c2.683,-2.334 5.192,-4.696 7.525,-7.088c2.333,-2.392 4.55,-4.754 6.65,-7.087c0.467,-0.467 1.225,-1.371 2.275,-2.713c1.05,-1.342 1.692,-2.012 1.925,-2.012c0.467,-0 0.7,0.466 0.7,1.4c0,0.466 -0.263,1.254 -0.788,2.362c-0.524,1.108 -1.079,1.954 -1.662,2.538c-1.283,1.516 -3.179,3.616 -5.688,6.3c-2.508,2.683 -5.308,5.425 -8.399,8.225c-3.092,2.8 -6.096,5.191 -9.013,7.175c-2.917,1.983 -5.483,2.975 -7.7,2.975Z" style="fill:#3a3a3a;fill-rule:nonzero;"/><path d="M515.2,202.542c-3.5,-0 -6.475,-1.459 -8.925,-4.375c-2.45,-2.917 -3.733,-6.067 -3.85,-9.45c0.35,-1.4 0.875,-2.1 1.575,-2.1c0.7,-0 1.108,0.904 1.225,2.712c0.117,1.809 1.05,3.588 2.8,5.338c1.75,1.75 3.442,2.625 5.075,2.625c6.767,-0 13.883,-4.375 21.35,-13.125c2.683,-3.15 5.454,-6.854 8.313,-11.113c2.858,-4.258 5.629,-9.071 8.312,-14.437l8.75,-17.325l-13.125,13.3c-4.083,4.083 -7.612,7.116 -10.587,9.1c-2.975,1.983 -5.28,2.975 -6.913,2.975c-2.8,-0 -5.6,-1.021 -8.4,-3.063c-2.8,-2.041 -4.375,-4.404 -4.725,-7.087c-1.167,-8.984 4.492,-19.659 16.975,-32.025c12.483,-12.25 23.625,-18.375 33.425,-18.375c2.683,-0 4.783,0.641 6.3,1.925c0.817,0.7 1.429,1.75 1.838,3.15c0.408,1.4 0.729,2.1 0.962,2.1c0.467,-0 0.875,-0.088 1.225,-0.263c0.35,-0.175 0.758,-0.262 1.225,-0.262c1.517,-0 2.771,0.525 3.763,1.575c0.991,1.05 1.312,2.1 0.962,3.15c-0.117,1.05 -1.808,4.2 -5.075,9.45c-2.1,3.5 -4.492,7.729 -7.175,12.687c-2.683,4.958 -5.512,10.092 -8.487,15.4c-2.975,5.308 -5.863,10.267 -8.663,14.875c-2.8,4.608 -5.308,8.371 -7.525,11.288c-10.733,14.233 -20.942,21.35 -30.625,21.35Zm12.425,-39.9c6.767,-0 15.983,-7.409 27.65,-22.225l18.55,-25.55c-0.7,-1.634 -2.158,-2.45 -4.375,-2.45c-7.233,-0 -16.917,5.716 -29.05,17.15c-12.6,11.9 -18.258,21.525 -16.975,28.875c0.583,2.8 1.983,4.2 4.2,4.2Z" style="fill:#3a3a3a;fill-rule:nonzero;"/><path d="M653.8,185.567c-9.1,-0 -16.333,-2.129 -21.7,-6.388c-5.367,-4.258 -8.05,-10.412 -8.05,-18.462c0,-5.834 1.254,-11.346 3.763,-16.538c2.508,-5.191 5.92,-9.829 10.237,-13.912c4.317,-4.084 9.246,-7.292 14.788,-9.625c5.541,-2.334 11.345,-3.5 17.412,-3.5c6.183,-0 11.054,1.4 14.612,4.2c3.559,2.8 5.338,6.591 5.338,11.375c0,3.5 -2.275,8.05 -6.825,13.65c-4.55,5.6 -6.825,7.466 -6.825,5.6c0,-0.467 0.175,-0.934 0.525,-1.4c3.733,-5.484 5.6,-10.617 5.6,-15.4c0,-4.317 -1.371,-7.759 -4.112,-10.325c-2.742,-2.567 -6.33,-3.85 -10.763,-3.85c-4.9,-0 -9.596,1.196 -14.087,3.587c-4.492,2.392 -8.488,5.571 -11.988,9.538c-3.5,3.966 -6.242,8.341 -8.225,13.125c-1.983,4.783 -2.975,9.508 -2.975,14.175c0,6.416 2.071,11.287 6.213,14.612c4.141,3.325 9.595,4.988 16.362,4.988c6.883,-0 13.504,-1.254 19.863,-3.763c6.358,-2.508 12.045,-6.096 17.062,-10.762c5.95,-5.6 11.958,-13.767 18.025,-24.5l15.225,-27.475c3.967,-6.3 8.108,-13.913 12.425,-22.838c4.317,-8.925 8.867,-19.162 13.65,-30.712c-16.8,-0.234 -33.133,1.4 -49,4.9c-16.917,3.616 -29.458,8.633 -37.625,15.05c-3.5,2.566 -5.25,5.25 -5.25,8.05c0,2.45 1.371,4.462 4.113,6.037c2.741,1.575 6.212,2.363 10.412,2.363c2.45,-0 5.367,-0.35 8.75,-1.05c3.383,-0.7 6.65,-1.663 9.8,-2.888c3.15,-1.225 5.542,-2.596 7.175,-4.112c1.167,-0.934 1.983,-1.4 2.45,-1.4c0.933,-0 1.108,0.466 0.525,1.4c-2.45,2.916 -5.629,5.366 -9.537,7.35c-3.909,1.983 -8.021,3.471 -12.338,4.462c-4.317,0.992 -8.342,1.488 -12.075,1.488c-5.717,-0 -10.179,-1.138 -13.387,-3.413c-3.209,-2.275 -4.813,-5.221 -4.813,-8.837c0,-4.2 2.1,-8.284 6.3,-12.25c7.933,-7.7 22.108,-13.417 42.525,-17.15c7.933,-1.4 16.45,-2.421 25.55,-3.063c9.1,-0.641 18.783,-0.904 29.05,-0.787c2.567,-2.217 5.017,-3.325 7.35,-3.325c2.333,-0 3.208,1.225 2.625,3.675c7.35,0.466 14.788,1.4 22.313,2.8c7.525,1.4 14.408,3.354 20.65,5.862c6.241,2.509 11.287,5.6 15.137,9.275c3.85,3.675 5.775,8.021 5.775,13.038c0,5.366 -1.779,10.471 -5.337,15.312c-3.559,4.842 -8.109,9.129 -13.65,12.863c-5.542,3.733 -11.346,6.708 -17.413,8.925c-5.6,1.983 -11.579,3.558 -17.937,4.725c-6.359,1.166 -12.63,1.75 -18.813,1.75c-4.667,-0 -9.129,-0.35 -13.387,-1.05c-4.259,-0.7 -8.138,-1.809 -11.638,-3.325c-7.117,10.383 -13.037,18.841 -17.762,25.375c-4.725,6.533 -8.371,11.083 -10.938,13.65c-12.6,12.6 -27.65,18.9 -45.15,18.9Zm94.5,-57.75c4.317,-0 8.604,-0.438 12.863,-1.313c4.258,-0.875 8.837,-2.071 13.737,-3.587c4.9,-1.634 9.858,-3.704 14.875,-6.213c5.017,-2.508 9.625,-5.366 13.825,-8.575c4.2,-3.208 7.583,-6.65 10.15,-10.325c2.567,-3.675 3.85,-7.379 3.85,-11.112c0,-4.2 -1.75,-7.846 -5.25,-10.938c-3.5,-3.091 -8.108,-5.629 -13.825,-7.612c-5.717,-1.984 -11.9,-3.529 -18.55,-4.638c-6.65,-1.108 -13.067,-1.837 -19.25,-2.187l-5.6,17.5c-1.983,5.016 -4.783,10.85 -8.4,17.5c-3.617,6.65 -8.05,14.116 -13.3,22.4l-3.85,5.95c0.817,0.466 1.721,0.846 2.713,1.137c0.991,0.292 2.07,0.554 3.237,0.788c2.217,0.466 4.375,0.787 6.475,0.962c2.1,0.175 4.2,0.263 6.3,0.263Z" style="fill:#3a3a3a;fill-rule:nonzero;"/><path d="M814.8,167.017c-3.383,-0 -6.533,-0.846 -9.45,-2.538c-2.917,-1.691 -4.375,-4.521 -4.375,-8.487c0,-5.484 1.954,-12.017 5.863,-19.6c3.908,-7.584 8.37,-15.459 13.387,-23.625c13.65,-22.167 23.333,-33.25 29.05,-33.25c1.167,-0 2.363,0.437 3.587,1.312c1.226,0.875 1.896,1.838 2.013,2.888l-12.25,16.45c-4.783,6.416 -9.1,12.337 -12.95,17.762c-3.85,5.425 -7.175,10.296 -9.975,14.613c-1.4,2.216 -2.975,4.725 -4.725,7.525c-1.75,2.8 -3.296,5.687 -4.637,8.662c-1.342,2.975 -2.013,5.979 -2.013,9.013c0,1.4 0.408,2.654 1.225,3.762c0.817,1.108 2.275,1.663 4.375,1.663c3.733,-0 8.633,-2.013 14.7,-6.038c6.067,-4.025 12.075,-9.596 18.025,-16.712c0.583,-0.7 1.225,-1.342 1.925,-1.925c0.7,-0.584 1.283,-0.875 1.75,-0.875c0.583,-0 0.875,0.35 0.875,1.05c0,0.35 -0.379,1.02 -1.137,2.012c-0.759,0.992 -1.371,1.779 -1.838,2.363l-4.2,4.725c-2.333,2.566 -5.104,5.366 -8.312,8.4c-3.209,3.033 -6.592,5.6 -10.15,7.7c-3.559,2.1 -7.146,3.15 -10.763,3.15Z" style="fill:#3a3a3a;fill-rule:nonzero;"/><path d="M855.75,167.542c-2.8,-0 -5.6,-0.992 -8.4,-2.975c-2.8,-1.984 -4.375,-4.317 -4.725,-7c-1.167,-8.984 4.492,-19.659 16.975,-32.025c12.367,-12.367 23.508,-18.55 33.425,-18.55c2.683,-0 4.783,0.641 6.3,1.925c0.817,0.816 1.429,1.925 1.838,3.325c0.408,1.4 0.729,2.1 0.962,2.1c0.467,-0 0.875,-0.088 1.225,-0.263c0.35,-0.175 0.758,-0.262 1.225,-0.262c1.4,-0 2.625,0.525 3.675,1.575c1.05,1.05 1.633,1.983 1.75,2.8c0.117,0.233 -3.617,6.008 -11.2,17.325c-7.583,11.083 -11.025,18.608 -10.325,22.575c0.583,2.683 1.867,4.025 3.85,4.025c6.067,-0 17.15,-10.034 33.25,-30.1c0.35,-0.467 0.7,-0.7 1.05,-0.7c0.583,-0 0.875,0.408 0.875,1.225c0,0.933 -0.525,2.1 -1.575,3.5c-14.817,19.95 -26.192,29.925 -34.125,29.925c-1.05,-0 -2.042,-0.175 -2.975,-0.525c-5.133,-1.984 -7.7,-5.834 -7.7,-11.55c0,-1.984 0.233,-3.967 0.7,-5.95l-10.85,10.5c-3.267,3.266 -6.212,5.6 -8.837,7c-2.625,1.4 -4.755,2.1 -6.388,2.1Zm-1.575,-3.85c6.767,-0 15.983,-7.409 27.65,-22.225l18.55,-25.55c-0.933,-1.634 -2.45,-2.45 -4.55,-2.45c-7.117,-0 -16.742,5.716 -28.875,17.15c-12.6,11.666 -18.258,21.291 -16.975,28.875c0.583,2.8 1.983,4.2 4.2,4.2Z" style="fill:#3a3a3a;fill-rule:nonzero;"/><path d="M960.75,167.017c-3.15,-0 -5.367,-0.904 -6.65,-2.713c-1.283,-1.808 -1.925,-4.054 -1.925,-6.737c0,-6.767 2.333,-14 7,-21.7l11.2,-18.2c-7.933,5.833 -15.808,13.125 -23.625,21.875c-2.1,2.333 -4.462,5.075 -7.087,8.225c-2.625,3.15 -5.513,6.766 -8.663,10.85c-4.2,5.483 -6.708,8.225 -7.525,8.225c-1.633,-0 -2.975,-0.73 -4.025,-2.188c-1.05,-1.458 -1.575,-2.771 -1.575,-3.937c0,-0.934 0.292,-2.654 0.875,-5.163c0.583,-2.508 1.283,-4.696 2.1,-6.562c0.817,-1.984 1.663,-3.938 2.538,-5.863c0.875,-1.925 1.72,-3.821 2.537,-5.687l-10.5,11.025c-0.233,0.233 -0.933,0.933 -2.1,2.1c-1.167,1.166 -2.1,1.75 -2.8,1.75c-0.583,-0 -0.875,-0.409 -0.875,-1.225c-0,-0.234 0.087,-0.554 0.262,-0.963c0.175,-0.408 0.555,-0.904 1.138,-1.487c1.75,-1.75 3.558,-3.617 5.425,-5.6c1.867,-1.984 3.792,-4.259 5.775,-6.825c1.05,-1.284 2.625,-3.238 4.725,-5.863c2.1,-2.625 4.404,-5.454 6.913,-8.487c2.508,-3.034 4.87,-5.834 7.087,-8.4c0.583,-0.817 1.225,-1.371 1.925,-1.663c0.7,-0.291 1.167,-0.437 1.4,-0.437c3.15,-0 4.725,1.225 4.725,3.675c0,0.7 -0.175,1.4 -0.525,2.1c-10.5,14.466 -16.8,25.491 -18.9,33.075c13.533,-13.534 24.413,-23.713 32.637,-30.538c8.226,-6.825 14.088,-10.237 17.588,-10.237c1.867,-0 3.296,0.291 4.288,0.875c0.991,0.583 1.487,1.691 1.487,3.325c0,0.583 -0.058,1.05 -0.175,1.4c-0.35,0.816 -2.742,4.083 -7.175,9.8c-2.683,3.266 -5.046,6.241 -7.087,8.925c-2.042,2.683 -3.705,5.016 -4.988,7c-2.1,3.266 -3.675,6.329 -4.725,9.187c-1.05,2.858 -1.575,5.279 -1.575,7.263c0,0.816 0.117,1.808 0.35,2.975c0.233,1.166 0.933,1.75 2.1,1.75c2.683,-0 6.883,-2.334 12.6,-7c2.683,-2.334 5.192,-4.696 7.525,-7.088c2.333,-2.392 4.55,-4.754 6.65,-7.087c0.467,-0.467 1.225,-1.371 2.275,-2.713c1.05,-1.342 1.692,-2.012 1.925,-2.012c0.467,-0 0.7,0.466 0.7,1.4c0,0.466 -0.262,1.254 -0.787,2.362c-0.525,1.108 -1.08,1.954 -1.663,2.538c-1.283,1.516 -3.179,3.616 -5.687,6.3c-2.509,2.683 -5.309,5.425 -8.4,8.225c-3.092,2.8 -6.096,5.191 -9.013,7.175c-2.917,1.983 -5.483,2.975 -7.7,2.975Z" style="fill:#3a3a3a;fill-rule:nonzero;"/><path d="M1031.28,167.017c-3.15,-0 -5.367,-0.904 -6.65,-2.713c-1.283,-1.808 -1.925,-4.054 -1.925,-6.737c0,-6.767 2.333,-14 7,-21.7l11.2,-18.2c-7.933,5.833 -15.808,13.125 -23.625,21.875c-2.1,2.333 -4.462,5.075 -7.087,8.225c-2.625,3.15 -5.513,6.766 -8.663,10.85c-4.2,5.483 -6.708,8.225 -7.525,8.225c-1.633,-0 -2.975,-0.73 -4.025,-2.188c-1.05,-1.458 -1.575,-2.771 -1.575,-3.937c0,-0.934 0.292,-2.654 0.875,-5.163c0.583,-2.508 1.283,-4.696 2.1,-6.562c0.817,-1.984 1.663,-3.938 2.538,-5.863c0.875,-1.925 1.72,-3.821 2.537,-5.687l-10.5,11.025c-0.233,0.233 -0.933,0.933 -2.1,2.1c-1.167,1.166 -2.1,1.75 -2.8,1.75c-0.583,-0 -0.875,-0.409 -0.875,-1.225c-0,-0.234 0.087,-0.554 0.262,-0.963c0.175,-0.408 0.555,-0.904 1.138,-1.487c1.75,-1.75 3.558,-3.617 5.425,-5.6c1.867,-1.984 3.792,-4.259 5.775,-6.825c1.05,-1.284 2.625,-3.238 4.725,-5.863c2.1,-2.625 4.404,-5.454 6.913,-8.487c2.508,-3.034 4.87,-5.834 7.087,-8.4c0.583,-0.817 1.225,-1.371 1.925,-1.663c0.7,-0.291 1.167,-0.437 1.4,-0.437c3.15,-0 4.725,1.225 4.725,3.675c0,0.7 -0.175,1.4 -0.525,2.1c-10.5,14.466 -16.8,25.491 -18.9,33.075c13.533,-13.534 24.413,-23.713 32.637,-30.538c8.226,-6.825 14.088,-10.237 17.588,-10.237c1.867,-0 3.296,0.291 4.287,0.875c0.992,0.583 1.488,1.691 1.488,3.325c-0,0.583 -0.058,1.05 -0.175,1.4c-0.35,0.816 -2.742,4.083 -7.175,9.8c-2.683,3.266 -5.046,6.241 -7.088,8.925c-2.041,2.683 -3.704,5.016 -4.987,7c-2.1,3.266 -3.675,6.329 -4.725,9.187c-1.05,2.858 -1.575,5.279 -1.575,7.263c-0,0.816 0.117,1.808 0.35,2.975c0.233,1.166 0.933,1.75 2.1,1.75c2.683,-0 6.883,-2.334 12.6,-7c2.683,-2.334 5.192,-4.696 7.525,-7.088c2.333,-2.392 4.55,-4.754 6.65,-7.087c0.467,-0.467 1.225,-1.371 2.275,-2.713c1.05,-1.342 1.692,-2.012 1.925,-2.012c0.467,-0 0.7,0.466 0.7,1.4c-0,0.466 -0.263,1.254 -0.788,2.362c-0.525,1.108 -1.079,1.954 -1.662,2.538c-1.283,1.516 -3.179,3.616 -5.688,6.3c-2.508,2.683 -5.308,5.425 -8.399,8.225c-3.092,2.8 -6.096,5.191 -9.013,7.175c-2.917,1.983 -5.483,2.975 -7.7,2.975Z" style="fill:#3a3a3a;fill-rule:nonzero;"/><path d="M1066.1,168.942c-3.733,-0 -7.117,-1.196 -10.15,-3.588c-3.033,-2.392 -4.55,-5.571 -4.55,-9.537c0,-8.284 5.075,-17.734 15.225,-28.35c10.383,-10.734 19.658,-16.1 27.825,-16.1c2.683,-0 4.871,0.729 6.563,2.187c1.691,1.459 2.537,3.238 2.537,5.338c0,6.533 -5.192,12.95 -15.575,19.25c-9.217,5.6 -16.975,8.4 -23.275,8.4c-0.933,-0 -1.75,-0.117 -2.45,-0.35c-1.75,3.15 -2.625,6.475 -2.625,9.975c0,6.066 2.858,9.1 8.575,9.1c5.833,-0 13.358,-3.909 22.575,-11.725c7.117,-5.717 13.183,-11.784 18.2,-18.2c1.05,-1.4 1.983,-2.1 2.8,-2.1c0.7,-0 1.05,0.35 1.05,1.05c0,0.7 -0.467,1.691 -1.4,2.975c-3.267,4.316 -6.767,8.283 -10.5,11.9c-3.733,3.616 -7.758,6.941 -12.075,9.975c-8.983,6.533 -16.567,9.8 -22.75,9.8Zm1.05,-26.25c4.433,-0 10.208,-2.217 17.325,-6.65c2.333,-1.634 4.638,-3.471 6.913,-5.513c2.275,-2.042 4.141,-4.112 5.6,-6.212c1.458,-2.1 2.187,-3.967 2.187,-5.6c0,-1.517 -1.225,-2.275 -3.675,-2.275c-3.5,-0 -8.4,2.625 -14.7,7.875c-3.033,2.566 -5.95,5.366 -8.75,8.4c-2.8,3.033 -5.192,6.241 -7.175,9.625c0.7,0.233 1.458,0.35 2.275,0.35Z" style="fill:#3a3a3a;fill-rule:nonzero;"/><path d="M1137.85,167.542c-5.017,-0 -8.458,-1.313 -10.325,-3.938c-1.867,-2.625 -2.8,-6.154 -2.8,-10.587c-0,-4.9 1.517,-10.734 4.55,-17.5c1.167,-2.684 2.392,-5.105 3.675,-7.263c1.283,-2.158 2.625,-4.171 4.025,-6.037c-0.467,0.116 -0.875,0.175 -1.225,0.175l-1.05,-0c-2.8,-0 -5.133,-1.984 -7,-5.95l-12.95,16.8c-6.883,8.983 -11.083,13.475 -12.6,13.475c-0.583,-0 -0.875,-0.234 -0.875,-0.7c-0,-0.584 0.292,-1.342 0.875,-2.275c0.35,-0.7 1.05,-1.634 2.1,-2.8c4.433,-5.134 8.517,-10.209 12.25,-15.225c3.733,-5.017 6.825,-9.917 9.275,-14.7c2.683,-10.15 6.067,-15.225 10.15,-15.225c2.683,-0 4.025,1.225 4.025,3.675c-0,2.216 -1.458,5.133 -4.375,8.75c-2.8,3.616 -4.2,5.483 -4.2,5.6c-0,2.45 1.808,3.675 5.425,3.675c2.1,-0 4.433,-0.759 7,-2.275l4.55,-2.8c0.233,-0.117 0.583,-0.175 1.05,-0.175c1.4,-0 2.625,0.583 3.675,1.75c1.05,1.166 1.4,2.216 1.05,3.15l-12.075,15.225c-7.467,9.566 -11.2,17.266 -11.2,23.1c-0,5.25 2.567,7.875 7.7,7.875c3.5,-0 7.262,-1.05 11.287,-3.15c4.025,-2.1 7.934,-4.696 11.725,-7.788c3.792,-3.091 6.971,-6.096 9.538,-9.012l4.2,-4.9c0.233,-0.234 0.525,-0.525 0.875,-0.875c0.35,-0.35 0.642,-0.525 0.875,-0.525c0.817,-0 1.225,0.408 1.225,1.225c-0,0.233 -0.117,0.641 -0.35,1.225c-0.233,0.583 -0.642,1.225 -1.225,1.925l-5.6,6.3c-2.683,3.033 -5.979,6.096 -9.888,9.187c-3.908,3.092 -7.933,5.629 -12.075,7.613c-4.141,1.983 -7.904,2.975 -11.287,2.975Z" style="fill:#3a3a3a;fill-rule:nonzero;"/></g><g><rect id="rect-1" x="1178.28" y="53.792" width="83.333" height="83.333" style="fill:none;"/><g><path d="M1239.47,60.927c-9.871,-0 -16.212,6.459 -19.531,12.262c-3.319,-5.803 -9.661,-12.262 -19.532,-12.262c-12.526,-0 -22.135,9.594 -22.135,22.318c-0,13.798 12.038,23.194 30.015,37.42c8.803,6.96 9.368,7.489 11.652,9.325c1.863,-1.499 2.895,-2.401 11.651,-9.325c17.977,-14.226 30.015,-23.622 30.015,-37.42c0,-12.724 -9.609,-22.318 -22.135,-22.318Z" style="fill:#ff5a5f;"/></g></g></g></svg>
